<?xml version="1.0" encoding="UTF-8"?>
<svg version="1.1" xmlns="http://www.w3.org/2000/svg" width="308" height="444">
<path d="M0 0 C58.49334865 46.8559285 86.46082436 128.64379818 98.58544922 200.27001953 C98.76333984 201.24084473 98.94123047 202.21166992 99.12451172 203.21191406 C104.26391889 231.59592174 104.47628821 265.00140222 98.58544922 293.27001953 C98.28743408 294.75622803 98.28743408 294.75622803 97.98339844 296.27246094 C91.47522002 327.95534597 79.15285417 356.74229948 56.58544922 380.27001953 C55.26480469 381.7028125 55.26480469 381.7028125 53.91748047 383.16455078 C27.95832886 410.77763426 -10.30240418 423.33743794 -47.47314453 424.48876953 C-88.38614547 425.29134425 -126.30737377 414.79749899 -156.41455078 386.27001953 C-157.31173828 385.43728516 -158.20892578 384.60455078 -159.13330078 383.74658203 C-193.17569371 351.13855959 -205.40975227 300.86266702 -206.63720703 255.23095703 C-208.05778954 171.01860462 -177.79401287 74.6329317 -119.41455078 12.27001953 C-85.19187832 -22.95489638 -39.83851971 -30.57721223 0 0 Z M-142.41455078 113.27001953 C-143.10935547 113.90166016 -143.80416016 114.53330078 -144.52001953 115.18408203 C-174.8719434 143.59598602 -190.23642683 190.98542139 -194.41455078 231.27001953 C-194.43980041 232.93649492 -194.44763692 234.6036813 -194.41455078 236.27001953 C-191.57048347 234.42521911 -188.79326557 232.55819981 -186.09423828 230.50439453 C-157.07629586 208.50273072 -119.62344336 200.94694552 -84.41455078 195.27001953 C-88.56588235 190.78591589 -93.20840635 187.41966905 -98.22705078 183.95751953 C-99.40944336 183.1328418 -99.40944336 183.1328418 -100.61572266 182.29150391 C-102.54557016 180.94645867 -104.47851279 179.60613146 -106.41455078 178.27001953 C-103.05997028 177.30398527 -99.8135258 176.9905324 -96.33642578 176.73486328 C-95.17626953 176.64785156 -94.01611328 176.56083984 -92.82080078 176.47119141 C-91.61423828 176.38417969 -90.40767578 176.29716797 -89.16455078 176.20751953 C-87.33150391 176.07120117 -87.33150391 176.07120117 -85.46142578 175.93212891 C-82.44601423 175.70832883 -79.43036271 175.48833734 -76.41455078 175.27001953 C-73.02048419 163.31728322 -69.88311542 151.32952673 -66.98876953 139.24658203 C-66.59249705 137.60033722 -66.19607563 135.95412825 -65.79951477 134.30795288 C-64.97983412 130.9019405 -64.16254164 127.49536637 -63.34692383 124.08837891 C-62.30205667 119.72504248 -61.25004966 115.36346129 -60.19621563 111.0022831 C-59.38065024 107.62305048 -58.56927665 104.24282204 -57.75913429 100.86228561 C-57.37260211 99.25199984 -56.98465592 97.64205278 -56.59525108 96.03245926 C-56.05500481 93.7970686 -55.52053909 91.56037232 -54.98754883 89.32324219 C-54.68286179 88.05404938 -54.37817474 86.78485657 -54.06425476 85.47720337 C-53.28218761 82.16201331 -53.28218761 82.16201331 -53.41455078 78.27001953 C-52.75455078 78.27001953 -52.09455078 78.27001953 -51.41455078 78.27001953 C-51.19613525 79.51783203 -50.97771973 80.76564453 -50.75268555 82.05126953 C-49.00789556 90.7482887 -46.42632133 99.24320739 -44.00439453 107.77001953 C-43.47128719 109.65657907 -42.93845988 111.54321776 -42.40589905 113.42993164 C-41.29453431 117.36411895 -40.18061642 121.29757092 -39.06469727 125.23046875 C-37.63265571 130.27784511 -36.20581207 135.3266726 -34.7806921 140.37600708 C-33.6833871 144.26252343 -32.58400572 148.14844984 -31.48391914 152.03417969 C-30.95672622 153.89683007 -30.43003572 155.75962273 -29.90385246 157.62255859 C-29.17107641 160.21525889 -28.43566347 162.80719613 -27.69946289 165.39892578 C-27.48178253 166.17083755 -27.26410217 166.94274933 -27.03982544 167.73805237 C-25.96310044 171.59177774 -25.96310044 171.59177774 -24.41455078 175.27001953 C-10.55455078 175.76501953 -10.55455078 175.76501953 3.58544922 176.27001953 C0.40164829 179.45382046 -2.33627401 182.11891482 -5.84033203 184.78564453 C-6.63632813 185.39666016 -7.43232422 186.00767578 -8.25244141 186.63720703 C-9.0690625 187.25853516 -9.88568359 187.87986328 -10.72705078 188.52001953 C-12.37112894 189.77240906 -14.01318156 191.02746376 -15.65283203 192.28564453 C-16.37510986 192.83510742 -17.0973877 193.38457031 -17.84155273 193.95068359 C-18.36064209 194.38606445 -18.87973145 194.82144531 -19.41455078 195.27001953 C-19.41455078 195.60001953 -19.41455078 195.93001953 -19.41455078 196.27001953 C-18.23989258 196.45008545 -18.23989258 196.45008545 -17.04150391 196.63378906 C58.47523661 208.3492437 58.47523661 208.3492437 85.58544922 232.27001953 C86.55482422 233.03314453 87.52419922 233.79626953 88.52294922 234.58251953 C90.58544922 236.27001953 90.58544922 236.27001953 92.58544922 238.27001953 C91.12704373 191.4552032 73.29335851 145.09087858 39.58544922 112.27001953 C39.12396484 111.76341797 38.66248047 111.25681641 38.18701172 110.73486328 C32.7226036 104.88394824 26.23361294 100.63789521 19.58544922 96.27001953 C18.80685547 95.73376953 18.02826172 95.19751953 17.22607422 94.64501953 C-33.01310027 61.86484894 -100.74353836 73.10664142 -142.41455078 113.27001953 Z M-172.60205078 234.95751953 C-175.53081377 238.06423268 -177.2326906 240.87575812 -177.78955078 245.14501953 C-177.18522455 250.18107144 -175.13626606 252.78705773 -171.41455078 255.99267578 C-139.89226319 279.58254561 -88.9151276 280.50921177 -51.03955078 280.45751953 C-50.21272797 280.45691528 -49.38590515 280.45631104 -48.5340271 280.45568848 C-11.2164116 280.38217478 42.91044575 280.10725667 72.52294922 253.64501953 C75.51685541 250.19749118 76.55891299 248.64990347 76.64794922 244.02001953 C74.5652361 236.66926735 69.50118289 232.57467633 63.14794922 228.64501953 C36.85727715 214.38402767 5.09652701 210.40506098 -24.41455078 209.27001953 C-22.01507696 221.01212548 -19.4229712 232.66839823 -16.41455078 244.27001953 C-28.25701753 236.52784772 -39.8167294 228.37139553 -51.41455078 220.27001953 C-57.49196634 224.21739982 -63.31944972 228.3852981 -69.03955078 232.83251953 C-74.09722306 236.74946681 -79.18500281 240.58462942 -84.41455078 244.27001953 C-83.69057578 237.38809624 -82.31370496 230.71715835 -80.85205078 223.95751953 C-80.38964561 221.81618868 -79.92988378 219.6742848 -79.47314453 217.53173828 C-79.27003662 216.59289795 -79.06692871 215.65405762 -78.85766602 214.68676758 C-78.32437803 212.18772374 -78.32437803 212.18772374 -78.41455078 209.27001953 C-106.68534279 208.87860717 -151.10405698 214.42277596 -172.60205078 234.95751953 Z M-196.41455078 262.27001953 C-195.68725358 286.29590629 -192.56525107 309.65523843 -181.41455078 331.27001953 C-180.89119141 332.33607422 -180.36783203 333.40212891 -179.82861328 334.50048828 C-170.06838394 353.67727691 -154.71801124 370.01661614 -136.41455078 381.27001953 C-135.36396484 381.94291016 -134.31337891 382.61580078 -133.23095703 383.30908203 C-118.01503048 392.59276867 -100.94654339 398.32404119 -83.41455078 401.27001953 C-82.40328125 401.445896 -81.39201172 401.62177246 -80.35009766 401.80297852 C-71.13772927 403.27698367 -62.09059464 403.63118272 -52.78955078 403.58251953 C-52.04476471 403.58036438 -51.29997864 403.57820923 -50.53262329 403.57598877 C-9.93345055 403.38804221 27.09905669 390.1527336 56.32763672 361.59033203 C81.67839626 334.97598323 92.62803935 298.36437173 93.58544922 262.27001953 C93.12396484 262.63353516 92.66248047 262.99705078 92.18701172 263.37158203 C53.35349062 293.30255679 -3.58412275 295.5137961 -50.72705078 295.45751953 C-51.74366791 295.45658295 -52.76028503 295.45564636 -53.80770874 295.4546814 C-96.70678696 295.36921416 -163.5945137 295.09005662 -196.41455078 262.27001953 Z " fill="#009832" transform="translate(206.41455078125,19.72998046875)"/>
</svg>
