<?xml version="1.0" encoding="UTF-8"?>
<svg version="1.1" xmlns="http://www.w3.org/2000/svg" width="444" height="635">
<path d="M0 0 C2.32438394 0.70422785 4.65897067 1.35248125 7 2 C7 2.66 7 3.32 7 4 C7.721875 4.12375 8.44375 4.2475 9.1875 4.375 C11.95721894 4.9904931 14.3970354 5.88444374 17 7 C17 7.66 17 8.32 17 9 C17.7425 9.12375 18.485 9.2475 19.25 9.375 C21.80141485 9.95486701 23.7267573 10.73708739 26 12 C26 12.66 26 13.32 26 14 C26.89332031 14.25652344 27.78664063 14.51304688 28.70703125 14.77734375 C32.02037711 16.00756588 34.00138126 17.30506575 36.6875 19.5625 C37.95787109 20.62017578 37.95787109 20.62017578 39.25390625 21.69921875 C40.16011719 22.45847656 41.06632812 23.21773437 42 24 C43.52947266 25.21623047 43.52947266 25.21623047 45.08984375 26.45703125 C46.09144531 27.25496094 47.09304688 28.05289063 48.125 28.875 C49.05570312 29.61492188 49.98640625 30.35484375 50.9453125 31.1171875 C51.62335938 31.73851562 52.30140625 32.35984375 53 33 C53 33.66 53 34.32 53 35 C53.639375 35.268125 54.27875 35.53625 54.9375 35.8125 C57 37 57 37 58 40 C58.598125 40.28875 59.19625 40.5775 59.8125 40.875 C62.71795946 42.3692363 64.01848945 44.4180317 66 47 C67.16015625 48.15242188 67.16015625 48.15242188 68.34375 49.328125 C84 65.07647059 84 65.07647059 84 71 C84.66 71 85.32 71 86 71 C87.65325117 73.23959619 89.18338682 75.47528783 90.6875 77.8125 C91.35906128 78.83984253 91.35906128 78.83984253 92.04418945 79.88793945 C93.36988249 81.9207955 94.68570512 83.95976256 96 86 C96.6496875 86.99773437 97.299375 87.99546875 97.96875 89.0234375 C104.39653165 98.98649906 110.1487118 109.16491934 115.3671875 119.80078125 C117.05244761 123.10276218 118.92790823 126.1762452 120.94921875 129.27734375 C122.63417606 132.03967153 123.7729293 135.01234961 125 138 C125.598125 139.175625 126.19625 140.35125 126.8125 141.5625 C138.31665369 164.26226686 146.77580151 189.09013419 154.19580078 213.37255859 C154.98339345 215.94574388 155.78556799 218.51401905 156.58984375 221.08203125 C167.17974517 255.19874079 173.48373807 290.40213669 176 326 C176.13030808 327.62900287 176.26163291 329.25792515 176.39453125 330.88671875 C178.05922636 352.70110781 176.85007024 374.53506508 175.25732422 396.31005859 C175.09014649 398.70733015 174.94469513 401.10625137 174.82470703 403.50634766 C174.37006551 411.85167663 173.04258655 419.82739525 171.20849609 427.95898438 C170.75093485 429.99583848 170.31397961 432.03636341 169.87890625 434.078125 C168.15746906 441.96626711 165.95917416 449.43416272 163.10839844 456.99951172 C162.11507938 459.68847455 161.26999046 462.36535885 160.5 465.125 C153.62227307 488.53207067 139.91948674 510.85562159 124.875 529.8125 C124.37194336 530.44728271 123.86888672 531.08206543 123.35058594 531.73608398 C120.4200357 535.38287304 117.36961261 538.74342552 114 542 C113.2059375 542.81082031 112.411875 543.62164063 111.59375 544.45703125 C108.66217353 547.3312124 105.62277594 550.02480822 102.5 552.6875 C101.66662109 553.41549805 101.66662109 553.41549805 100.81640625 554.15820312 C97.69936518 556.8168558 94.91616414 558.75062674 91 560 C91 560.66 91 561.32 91 562 C89.42578125 563.18359375 89.42578125 563.18359375 87.3125 564.4375 C86.58417969 564.87320313 85.85585938 565.30890625 85.10546875 565.7578125 C84.41066406 566.16773438 83.71585937 566.57765625 83 567 C82.05125 567.598125 81.1025 568.19625 80.125 568.8125 C78 570 78 570 76 570 C76 570.66 76 571.32 76 572 C73.03 572.99 70.06 573.98 67 575 C67 575.66 67 576.32 67 577 C65.73160474 577.50615298 64.46016898 578.00469099 63.1875 578.5 C62.12595703 578.91765625 62.12595703 578.91765625 61.04296875 579.34375 C59 580 59 580 56 580 C56 580.66 56 581.32 56 582 C55.154375 582.25394531 54.30875 582.50789062 53.4375 582.76953125 C46.14383899 584.94892169 46.14383899 584.94892169 39 587.5625 C34.51490709 589.31836616 29.84809334 590.24683714 25.1484375 591.25390625 C22.04883677 591.91756926 22.04883677 591.91756926 19.37109375 592.9921875 C14.23706751 594.52704123 9.00162401 594.96855001 3.6875 595.5625 C1.503468 595.8099644 -0.68015647 596.0610622 -2.86328125 596.31640625 C-4.30634644 596.47798218 -4.30634644 596.47798218 -5.77856445 596.64282227 C-7.96755219 596.7722561 -7.96755219 596.7722561 -9 598 C-23.73583633 600.43592397 -41.26416367 600.43592397 -56 598 C-56.33 597.67 -56.66 597.34 -57 597 C-58.88844492 596.66605848 -60.78675706 596.38760147 -62.6875 596.1328125 C-63.86183594 595.96910156 -65.03617188 595.80539062 -66.24609375 595.63671875 C-68.71697493 595.29989728 -71.18832192 594.96647253 -73.66015625 594.63671875 C-79.69621395 593.78943753 -85.34400354 592.79892835 -91.07373047 590.70019531 C-93.8522797 589.69019795 -96.69098998 589.00562311 -99.5625 588.3125 C-101.11130859 587.93544922 -101.11130859 587.93544922 -102.69140625 587.55078125 C-103.45324219 587.36902344 -104.21507812 587.18726563 -105 587 C-105 586.34 -105 585.68 -105 585 C-105.60328125 584.86722656 -106.2065625 584.73445312 -106.828125 584.59765625 C-107.62734375 584.42105469 -108.4265625 584.24445312 -109.25 584.0625 C-110.03890625 583.88847656 -110.8278125 583.71445312 -111.640625 583.53515625 C-113.76878703 583.052444 -115.88532842 582.53836822 -118 582 C-118 581.34 -118 580.68 -118 580 C-118.54817383 579.84289551 -119.09634766 579.68579102 -119.66113281 579.52392578 C-125.58564938 577.7051724 -130.53086621 575.18587184 -135.75 571.875 C-136.52496826 571.39144043 -137.29993652 570.90788086 -138.09838867 570.40966797 C-156.07750285 559.10617867 -156.07750285 559.10617867 -163 552 C-164.11204481 551.04716865 -165.235557 550.10739179 -166.375 549.1875 C-170.74500609 545.48686027 -175.57718381 541.17352419 -177.94921875 535.8828125 C-178.83555593 533.85889166 -178.83555593 533.85889166 -180.81640625 533.16796875 C-184.15249934 531.38354687 -185.85890861 528.37149897 -187.9375 525.3125 C-188.35451172 524.71244141 -188.77152344 524.11238281 -189.20117188 523.49414062 C-190.04851329 522.27485954 -190.89140963 521.05247811 -191.72998047 519.82714844 C-192.97501179 518.03594998 -194.26800943 516.28786783 -195.56640625 514.53515625 C-198.15105802 510.92736049 -200.089291 507.12099322 -202 503.125 C-204.11719327 498.77803372 -206.23469959 494.48303445 -208.6875 490.3125 C-211.78352209 484.79706991 -213.8933686 478.94765971 -216 473 C-216.2980957 472.17081055 -216.59619141 471.34162109 -216.90332031 470.48730469 C-224.34358172 449.63528593 -230.12682348 428.49468449 -231.81005859 406.36132812 C-232.01321429 403.83572159 -232.26142897 401.3174414 -232.51953125 398.796875 C-232.7005765 397.01042231 -232.88156726 395.22396409 -233.0625 393.4375 C-233.14209961 392.65979248 -233.22169922 391.88208496 -233.30371094 391.08081055 C-234.74688316 376.13301726 -235.21380041 361.25756142 -234.8125 346.25 C-234.79011261 345.39583496 -234.76772522 344.54166992 -234.74465942 343.66162109 C-233.72484843 307.38459183 -229.30319627 270.85896683 -218.88085938 235.99804688 C-218.00435421 233.01481976 -217.23516381 230.02084532 -216.5 227 C-213.94176367 216.65761142 -210.9655755 206.61558817 -207.13916016 196.67626953 C-205.8009999 193.18825028 -204.56426122 189.72391992 -203.5625 186.125 C-201.2985043 178.22087467 -198.05698976 170.62288834 -195 163 C-194.68949707 162.2251123 -194.37899414 161.45022461 -194.05908203 160.65185547 C-193.14929586 158.39052345 -192.23273787 156.13209709 -191.3125 153.875 C-191.03954102 153.20138428 -190.76658203 152.52776855 -190.48535156 151.83374023 C-188.83292549 147.81978004 -187.00589475 143.94010051 -185.0378418 140.07177734 C-183.95827686 137.91671076 -182.93428465 135.74205939 -181.921875 133.5546875 C-177.66650156 124.37075769 -173.19260393 115.50469566 -168.04003906 106.78613281 C-166.50104098 104.1431023 -165.02536238 101.46583508 -163.54296875 98.79077148 C-158.10587197 88.99967852 -152.09461581 80.00647081 -145.3125 71.08203125 C-142.35904466 67.14575377 -139.53566575 63.12228469 -136.7265625 59.08203125 C-135 57 -135 57 -132 56 C-131.814375 55.13375 -131.814375 55.13375 -131.625 54.25 C-130.70068437 50.92246374 -128.47096437 49.35603579 -126 47 C-125.34 46.175 -124.68 45.35 -124 44.5 C-121.8319948 41.7899935 -119.48335462 39.42278499 -117 37 C-116.236875 36.21625 -115.47375 35.4325 -114.6875 34.625 C-108.73737394 28.81324897 -102.44978798 23.74708675 -95.671875 18.92578125 C-93.30579567 17.22040536 -91.03056294 15.4414949 -88.75 13.625 C-85.28021158 10.98681377 -82.25209111 9.88585232 -78 9 C-78 8.34 -78 7.68 -78 7 C-76.73160474 6.49384702 -75.46016898 5.99530901 -74.1875 5.5 C-73.47980469 5.2215625 -72.77210938 4.943125 -72.04296875 4.65625 C-70 4 -70 4 -67 4 C-67 3.34 -67 2.68 -67 2 C-65.58847656 1.60167969 -65.58847656 1.60167969 -64.1484375 1.1953125 C-62.90320313 0.84210937 -61.65796875 0.48890625 -60.375 0.125 C-59.14523438 -0.22304688 -57.91546875 -0.57109375 -56.6484375 -0.9296875 C-54.36808829 -1.59865504 -52.10001727 -2.31303747 -49.85546875 -3.09375 C-34.4065534 -7.99682573 -14.90089627 -5.50685297 0 0 Z M-24 134 C-25.00781794 137.83073656 -24.92780936 140.29201771 -23.8125 144.078125 C-23.52947021 145.06127686 -23.24644043 146.04442871 -22.95483398 147.05737305 C-22.63973877 148.11093994 -22.32464355 149.16450684 -22 150.25 C-21.34478012 152.51163998 -20.68984001 154.77336102 -20.03515625 157.03515625 C-19.69629395 158.19160645 -19.35743164 159.34805664 -19.00830078 160.53955078 C-17.44327636 165.91065397 -15.94038581 171.29874386 -14.4375 176.6875 C-14.1489917 177.71762207 -13.8604834 178.74774414 -13.56323242 179.80908203 C-10.27305222 191.56488202 -6.99723672 203.32853916 -3.9140625 215.140625 C-2.06008817 222.23022283 -0.03151686 229.22411946 2.20849609 236.19897461 C3.84876086 241.3565542 5.16407066 246.55156137 6.32421875 251.83984375 C6.54722656 252.55269531 6.77023437 253.26554687 7 254 C10.87176814 255.93588407 15.64203958 255.47609565 19.91015625 255.71875 C23 256 23 256 24 257 C25.55948542 257.15686249 27.12542668 257.25076639 28.69140625 257.31640625 C29.63564453 257.35830078 30.57988281 257.40019531 31.55273438 257.44335938 C32.54595703 257.48267578 33.53917969 257.52199219 34.5625 257.5625 C36.05813477 257.62727539 36.05813477 257.62727539 37.58398438 257.69335938 C40.0558415 257.79980298 42.5278031 257.90181928 45 258 C45.06091357 259.60499742 45.10446666 261.2106604 45.140625 262.81640625 C45.16672852 263.71045166 45.19283203 264.60449707 45.21972656 265.52563477 C45 268 45 268 42.75 270.9375 C41.06997024 272.19752232 39.38389104 273.44959302 37.6875 274.6875 C37.130625 275.120625 36.57375 275.55375 36 276 C36 276.66 36 277.32 36 278 C35.2575 278.2475 34.515 278.495 33.75 278.75 C29.98702937 280.4604412 27.87023071 283.04274622 25.125 286.0625 C23 288 23 288 19.8125 289.5625 C16.69717096 290.74045087 16.69717096 290.74045087 16 294 C16.87325928 294.08564209 17.74651855 294.17128418 18.64624023 294.25952148 C21.87625934 294.57841078 25.1058517 294.90125014 28.33520508 295.22680664 C29.73478573 295.36707352 31.13452669 295.50575002 32.53442383 295.64282227 C34.54289212 295.8397588 36.55075582 296.04283114 38.55859375 296.24609375 C39.76829834 296.36654053 40.97800293 296.4869873 42.22436523 296.61108398 C45 297 45 297 46 298 C49.6832404 298.6776856 53.41058994 299.08913921 57.125 299.5625 C58.15882813 299.70107422 59.19265625 299.83964844 60.2578125 299.98242188 C65.55007393 300.66758072 70.66381927 301.17384158 76 301 C76 301.66 76 302.32 76 303 C76.71019287 303.13575439 77.42038574 303.27150879 78.15209961 303.41137695 C81.41514115 304.03881345 84.67629516 304.6755887 87.9375 305.3125 C89.05447266 305.52583984 90.17144531 305.73917969 91.32226562 305.95898438 C97.74565293 307.22105754 103.85858553 308.73842466 110 311 C111.49738426 311.53518863 112.99478019 312.07034462 114.4921875 312.60546875 C116.70743853 313.40366863 118.92153313 314.20452726 121.1328125 315.01367188 C124.2102726 316.11790441 126.70407351 317 130 317 C130 317.66 130 318.32 130 319 C131.26839526 319.50615298 132.53983102 320.00469099 133.8125 320.5 C134.52019531 320.7784375 135.22789062 321.056875 135.95703125 321.34375 C138.11841216 322.1529162 138.11841216 322.1529162 141 322 C141 322.66 141 323.32 141 324 C144.80427492 326.2013866 144.80427492 326.2013866 149 327 C149 327.66 149 328.32 149 329 C149.886875 329.391875 150.77375 329.78375 151.6875 330.1875 C155.12933227 332.07076672 157.28170766 334.2082403 160 337 C160.99 337.33 161.98 337.66 163 338 C161.02647861 304.49041223 151.72927369 269.68542926 136 240 C135.59394531 239.21753906 135.18789063 238.43507813 134.76953125 237.62890625 C127.91486286 224.70680029 120.05349255 212.48684233 111 201 C110.47148437 200.31679687 109.94296875 199.63359375 109.3984375 198.9296875 C108.32044613 197.57431823 107.17021211 196.27659503 106 195 C105.34 195 104.68 195 104 195 C103.89945313 194.39671875 103.79890625 193.7934375 103.6953125 193.171875 C102.86765785 190.58661666 102.00942435 189.87713964 99.875 188.25 C97.044229 185.97030122 94.70764834 183.600424 92.375 180.8125 C89.82286317 177.80258078 87.52021311 175.85789025 84 174 C83.56300781 173.5565625 83.12601562 173.113125 82.67578125 172.65625 C80.5937778 170.59851232 78.3319922 168.99463959 75.9375 167.3125 C75.05964844 166.68988281 74.18179688 166.06726563 73.27734375 165.42578125 C71.16527794 163.82311594 71.16527794 163.82311594 69 164 C69 163.34 69 162.68 69 162 C65.19572508 159.7986134 65.19572508 159.7986134 61 159 C61 158.34 61 157.68 61 157 C51.4335657 151.46083657 51.4335657 151.46083657 41 149 C41 148.34 41 147.68 41 147 C40.16597656 146.74605469 39.33195312 146.49210938 38.47265625 146.23046875 C36.78462891 145.71419922 36.78462891 145.71419922 35.0625 145.1875 C33.86109375 144.82140625 32.6596875 144.4553125 31.421875 144.078125 C28.84351923 143.26576633 26.33959312 142.38768701 23.8125 141.4375 C18.38732792 139.56780793 12.68591832 138.85658864 7.03051758 138.00170898 C1.09461773 137.09461773 1.09461773 137.09461773 0 136 C-1.43726072 135.77357329 -2.88388514 135.60577024 -4.33203125 135.46484375 C-5.21310547 135.37783203 -6.09417969 135.29082031 -7.00195312 135.20117188 C-7.92943359 135.11416016 -8.85691406 135.02714844 -9.8125 134.9375 C-10.72837891 134.84662109 -11.64425781 134.75574219 -12.58789062 134.66210938 C-16.42502498 134.29041318 -20.13899351 134 -24 134 Z M-60 137 C-61.47307386 137.33053795 -62.95760418 137.61042712 -64.4453125 137.8671875 C-65.81429687 138.11275391 -65.81429687 138.11275391 -67.2109375 138.36328125 C-69.12958193 138.70020139 -71.04884382 139.03362703 -72.96875 139.36328125 C-78.40731241 140.34587866 -83.00334524 141.64826611 -88 144 C-89.63759187 144.58606013 -91.28243086 145.15278535 -92.9375 145.6875 C-93.70964844 145.93886719 -94.48179687 146.19023437 -95.27734375 146.44921875 C-95.84582031 146.63097656 -96.41429687 146.81273437 -97 147 C-97 147.66 -97 148.32 -97 149 C-97.60328125 149.10957031 -98.2065625 149.21914062 -98.828125 149.33203125 C-103.35107546 150.22932626 -106.41146404 151.00955336 -110 154 C-112.29910519 155.10437367 -114.63292515 156.04406592 -117 157 C-117 157.66 -117 158.32 -117 159 C-117.73089844 159.268125 -118.46179688 159.53625 -119.21484375 159.8125 C-126.44364808 162.89462695 -132.58487539 168.35889684 -138.625 173.3125 C-139.15810791 173.74498047 -139.69121582 174.17746094 -140.24047852 174.62304688 C-141.53376201 175.70237662 -142.77254365 176.84635975 -144 178 C-144 178.66 -144 179.32 -144 180 C-144.639375 180.268125 -145.27875 180.53625 -145.9375 180.8125 C-148.33131686 181.88667752 -148.33131686 181.88667752 -149 185 C-150.33333333 185.66666667 -151.66666667 186.33333333 -153 187 C-156.47573437 190.12589127 -156.47573437 190.12589127 -159 194 C-160.14065381 196.28130762 -161.6898824 197.64933612 -163.515625 199.39453125 C-166.08384892 202.17226818 -168.11062763 205.33318174 -170.23828125 208.453125 C-171.80397479 210.71661101 -173.43560145 212.89103657 -175.125 215.0625 C-178.21273941 219.15781753 -180.60399551 223.47421373 -183 228 C-183.91265625 229.65515625 -183.91265625 229.65515625 -184.84375 231.34375 C-193.80777194 247.67576071 -201.72325104 265.17679627 -206.296875 283.28515625 C-206.78234083 285.15959374 -207.31694958 287.02174535 -207.890625 288.87109375 C-211.38765346 300.20868205 -213.37359938 311.83551635 -215.4909668 323.49487305 C-216 326 -216 326 -217 329 C-217.03954234 331.33299825 -217.04401732 333.66708189 -217 336 C-213.01636642 334.67212214 -210.89369166 332.99014805 -208 330 C-207.01 329.67 -206.02 329.34 -205 329 C-204.566875 328.54882812 -204.13375 328.09765625 -203.6875 327.6328125 C-201.39049441 325.4102469 -198.86638206 324.2730638 -196 322.875 C-194.948125 322.35679687 -193.89625 321.83859375 -192.8125 321.3046875 C-190 320 -190 320 -187 319 C-187 318.34 -187 317.68 -187 317 C-186.30390625 316.88140625 -185.6078125 316.7628125 -184.890625 316.640625 C-181.70657933 315.93497164 -178.80433095 314.89356467 -175.75 313.75 C-162.37681953 308.92002041 -149.03031594 305.32264988 -135 303 C-135 302.34 -135 301.68 -135 301 C-133.9790625 300.92652344 -133.9790625 300.92652344 -132.9375 300.8515625 C-126.7109795 300.37132555 -120.51133302 299.75183866 -114.3125 299 C-113.25192383 298.8755249 -113.25192383 298.8755249 -112.16992188 298.74853516 C-108.79394981 298.57696499 -108.79394981 298.57696499 -106 297 C-103.55988327 296.62677 -101.13471401 296.30893661 -98.68359375 296.02734375 C-97.95253922 295.93997452 -97.22148468 295.85260529 -96.46827698 295.7625885 C-94.12514478 295.48350533 -91.78135467 295.21044249 -89.4375 294.9375 C-87.8521667 294.74974401 -86.26687954 294.56159808 -84.68164062 294.37304688 C-80.78828197 293.91083221 -76.89432278 293.45401689 -73 293 C-74.14093902 289.57718293 -75.25514721 289.00926461 -78.203125 287.15625 C-81.60796312 284.96531069 -84.78457087 282.45679794 -88 280 C-88.78246094 279.40574219 -89.56492187 278.81148437 -90.37109375 278.19921875 C-91.15613281 277.59722656 -91.94117188 276.99523437 -92.75 276.375 C-93.82507813 275.55128906 -93.82507813 275.55128906 -94.921875 274.7109375 C-95.60765625 274.14632812 -96.2934375 273.58171875 -97 273 C-97.74765625 272.47664062 -98.4953125 271.95328125 -99.265625 271.4140625 C-102.01093776 267.59288394 -101.31302099 263.55619437 -101 259 C-100.25314941 258.94465088 -99.50629883 258.88930176 -98.73681641 258.83227539 C-95.36587008 258.58001878 -91.99544681 258.3213415 -88.625 258.0625 C-87.449375 257.97548828 -86.27375 257.88847656 -85.0625 257.79882812 C-83.94101563 257.71181641 -82.81953125 257.62480469 -81.6640625 257.53515625 C-80.62717285 257.456604 -79.5902832 257.37805176 -78.52197266 257.29711914 C-76.00843528 257.14567233 -76.00843528 257.14567233 -74 256 C-70.91815246 255.76360829 -67.83760526 255.61758293 -64.75 255.4765625 C-63.8425 255.31929688 -62.935 255.16203125 -62 255 C-59.79641487 251.69462231 -59.17550225 249.23125936 -58.25 245.375 C-57.99512817 244.32554199 -57.99512817 244.32554199 -57.73510742 243.25488281 C-57.15008522 240.8381377 -56.57445118 238.41927866 -56 236 C-55.10543842 232.24969569 -54.2091404 228.49980779 -53.3125 224.75 C-53.06604736 223.71697754 -52.81959473 222.68395508 -52.56567383 221.61962891 C-50.25634093 211.97949842 -47.85073411 202.36449288 -45.4375 192.75 C-36.92177491 164.20323996 -36.92177491 164.20323996 -33 135 C-35.83339965 134.97275577 -38.66653117 134.95304411 -41.5 134.9375 C-42.29148438 134.92912109 -43.08296875 134.92074219 -43.8984375 134.91210938 C-52.50636098 134.38433377 -52.50636098 134.38433377 -60 137 Z M-82.4375 319.9375 C-83.35337891 320.02451172 -84.26925781 320.11152344 -85.21289062 320.20117188 C-93.65050017 320.31857729 -93.65050017 320.31857729 -101 323 C-102.47150296 323.22698013 -103.95186468 323.3969553 -105.43359375 323.54296875 C-116.76884815 324.75453198 -127.82844793 326.4072216 -138.9375 329 C-140.54226196 329.37354614 -140.54226196 329.37354614 -142.17944336 329.75463867 C-148.2395792 331.21272006 -154.11359043 332.96025085 -160 335 C-161.85095755 335.57297157 -163.70445747 336.13793813 -165.5625 336.6875 C-166.40941406 336.93886719 -167.25632812 337.19023437 -168.12890625 337.44921875 C-168.74636719 337.63097656 -169.36382812 337.81273437 -170 338 C-170 338.66 -170 339.32 -170 340 C-170.721875 340.12375 -171.44375 340.2475 -172.1875 340.375 C-174.95721894 340.9904931 -177.3970354 341.88444374 -180 343 C-180 343.66 -180 344.32 -180 345 C-180.969375 345.268125 -181.93875 345.53625 -182.9375 345.8125 C-183.948125 346.204375 -184.95875 346.59625 -186 347 C-186.33 347.99 -186.66 348.98 -187 350 C-188.32407669 350.68486725 -189.65909241 351.34870203 -191 352 C-193.37580018 353.70881764 -193.37580018 353.70881764 -195 356 C-195.09112768 359.55397967 -194.15182992 360.82648009 -191.8125 363.5 C-190.884375 364.325 -189.95625 365.15 -189 366 C-188.09636719 366.804375 -187.19273437 367.60875 -186.26171875 368.4375 C-176.27691251 376.71093159 -158.81635727 383.23101856 -146 384 C-146 384.66 -146 385.32 -146 386 C-143.45953542 386.50688605 -140.91791124 387.00566874 -138.375 387.5 C-137.66214844 387.64308594 -136.94929688 387.78617187 -136.21484375 387.93359375 C-132.07855065 388.73049426 -128.23566321 389.16034056 -124 389 C-124 389.66 -124 390.32 -124 391 C-120.68907899 391.51083558 -117.37606521 392.00663214 -114.0625 392.5 C-113.13630859 392.64308594 -112.21011719 392.78617187 -111.25585938 392.93359375 C-105.43316429 393.79167513 -99.88525633 394.14486785 -94 394 C-94 394.66 -94 395.32 -94 396 C-50.53255176 399.84078932 -5.40534227 401.6925039 38 396 C38.33 395.67 38.66 395.34 39 395 C40.69326551 394.71360309 42.39635388 394.48480551 44.1015625 394.28125 C45.14957031 394.15363281 46.19757813 394.02601563 47.27734375 393.89453125 C48.38207031 393.76433594 49.48679687 393.63414062 50.625 393.5 C52.78391721 393.24010651 54.94277305 392.97970257 57.1015625 392.71875 C58.12024414 392.59628906 59.13892578 392.47382813 60.18847656 392.34765625 C63.46656212 391.94230771 66.73312019 391.48675573 70 391 C70 390.34 70 389.68 70 389 C70.76183594 388.95101562 71.52367187 388.90203125 72.30859375 388.8515625 C78.72970616 388.38661304 84.75441373 387.56139657 91 386 C91 385.34 91 384.68 91 384 C92.155 383.87625 93.31 383.7525 94.5 383.625 C98.78350375 383.09721115 102.83352672 382.11601963 107 381 C107 380.34 107 379.68 107 379 C107.92232422 378.80083984 107.92232422 378.80083984 108.86328125 378.59765625 C109.67152344 378.42105469 110.47976563 378.24445313 111.3125 378.0625 C112.11300781 377.88847656 112.91351563 377.71445312 113.73828125 377.53515625 C116.145401 377.00113841 116.145401 377.00113841 119 376 C119 375.34 119 374.68 119 374 C119.70125 373.896875 120.4025 373.79375 121.125 373.6875 C124.39137647 372.90640997 127.0471852 371.57941257 130 370 C130 369.34 130 368.68 130 368 C130.70125 367.835 131.4025 367.67 132.125 367.5 C136.31359067 365.31464835 138.39230949 361.85328838 141 358 C137.82972405 352.45201708 134.87843124 347.86385112 129 345 C128.01 345 127.02 345 126 345 C126 344.34 126 343.68 126 343 C121.18790099 340.70954986 121.18790099 340.70954986 116 340 C116 339.34 116 338.68 116 338 C114.80503906 337.67386719 113.61007812 337.34773438 112.37890625 337.01171875 C110.77327915 336.57088885 109.16782121 336.12944251 107.5625 335.6875 C106.73153809 335.45893311 105.90057617 335.23036621 105.04443359 334.99487305 C101.02403394 333.87862184 97.0514096 332.73097945 93.125 331.3125 C88.8084076 329.79700997 84.4145599 329.16268914 79.89453125 328.52734375 C77 328 77 328 74.40625 327.0390625 C69.26261115 325.4700167 64.01988517 325.03349101 58.6875 324.4375 C56.503468 324.1900356 54.31984353 323.9389378 52.13671875 323.68359375 C51.17467529 323.57587646 50.21263184 323.46815918 49.22143555 323.35717773 C47 323 47 323 46 322 C43.68692997 321.69888694 41.36575724 321.459672 39.04296875 321.24609375 C38.34359695 321.18092056 37.64422516 321.11574738 36.92366028 321.04859924 C35.44010473 320.9112305 33.95634662 320.77603492 32.47241211 320.64282227 C30.20704586 320.43925639 27.94237792 320.22901723 25.67773438 320.01757812 C17.85216345 319.26808249 17.85216345 319.26808249 10 319 C11.43173047 324.59888094 13.00657249 330.08714026 14.94970703 335.53271484 C17.48255984 342.6770813 18.84406298 349.38743836 19 357 C15.5625 356.1875 15.5625 356.1875 12 355 C11.67 354.01 11.34 353.02 11 352 C7.99152582 350.77479736 7.99152582 350.77479736 5 350 C5 349.34 5 348.68 5 348 C3.6078125 347.3503125 3.6078125 347.3503125 2.1875 346.6875 C-1 345 -1 345 -2.5 343.4375 C-4.68154851 341.34684934 -7.14055149 340.8260629 -10 340 C-10 339.34 -10 338.68 -10 338 C-11.11375 337.34 -12.2275 336.68 -13.375 336 C-14.00148437 335.62875 -14.62796875 335.2575 -15.2734375 334.875 C-16.97472667 333.84931652 -16.97472667 333.84931652 -19 334 C-19 333.34 -19 332.68 -19 332 C-22.22114157 329.68407978 -22.22114157 329.68407978 -26 329 C-26 328.34 -26 327.68 -26 327 C-27.32 327 -28.64 327 -30 327 C-30 327.66 -30 328.32 -30 329 C-31.07314453 329.38671875 -31.07314453 329.38671875 -32.16796875 329.78125 C-35.17160111 331.07384765 -37.63505372 332.6277709 -40.3125 334.5 C-41.19550781 335.1084375 -42.07851562 335.716875 -42.98828125 336.34375 C-43.65214844 336.8903125 -44.31601563 337.436875 -45 338 C-45 338.66 -45 339.32 -45 340 C-45.78375 340.309375 -46.5675 340.61875 -47.375 340.9375 C-49.92330128 341.92875038 -49.92330128 341.92875038 -52 343 C-52 343.66 -52 344.32 -52 345 C-52.78375 345.309375 -53.5675 345.61875 -54.375 345.9375 C-56.92330128 346.92875038 -56.92330128 346.92875038 -59 348 C-59 348.66 -59 349.32 -59 350 C-59.78375 350.309375 -60.5675 350.61875 -61.375 350.9375 C-63.92330128 351.92875038 -63.92330128 351.92875038 -66 353 C-66 353.66 -66 354.32 -66 355 C-68.65228812 356.07525194 -71.28368454 357.09456151 -74 358 C-73.96737089 348.91279164 -72.10466523 341.24986108 -69.17138672 332.71362305 C-67.59885291 328.11123794 -66.51640822 323.84132703 -66 319 C-71.52915814 318.86200104 -76.94345506 319.39464062 -82.4375 319.9375 Z M-220 383 C-220.95493058 399.44602659 -217.83677723 415.93281557 -213.625 431.75 C-213.34519287 432.80783691 -213.06538574 433.86567383 -212.77709961 434.95556641 C-211.05315672 441.13054939 -208.88110603 446.85317056 -206.10668945 452.63378906 C-205.12481281 454.73313794 -204.30767428 456.80798019 -203.5625 459 C-197.70396433 475.07006153 -186.47322303 489.26494132 -175.046875 501.7265625 C-173.50123562 503.4432841 -172.04062686 505.23708641 -170.625 507.0625 C-166.56331672 511.60771701 -161.77257345 515.22856983 -157 519 C-156.1028125 519.75023437 -155.205625 520.50046875 -154.28125 521.2734375 C-152.21103718 523.2011632 -152.21103718 523.2011632 -150 523 C-150 523.66 -150 524.32 -150 525 C-149.40832031 525.32613281 -148.81664062 525.65226563 -148.20703125 525.98828125 C-136.4859658 532.47024078 -136.4859658 532.47024078 -134.65625 534.46484375 C-132.67396046 536.30220174 -130.90492706 537.00182856 -128.375 537.9375 C-124.12877813 539.54770712 -120.01648388 541.32797494 -115.91015625 543.265625 C-113.87437947 544.17942558 -113.87437947 544.17942558 -111 544 C-111 544.66 -111 545.32 -111 546 C-109.4188708 546.50692692 -107.83498617 547.00526443 -106.25 547.5 C-105.36828125 547.7784375 -104.4865625 548.056875 -103.578125 548.34375 C-100.79732471 549.16445285 -100.79732471 549.16445285 -97 549 C-97 549.66 -97 550.32 -97 551 C-94.96040523 551.50838564 -92.91820862 552.00633886 -90.875 552.5 C-89.16957031 552.91765625 -89.16957031 552.91765625 -87.4296875 553.34375 C-84.18533302 553.96453765 -81.29185543 554.12006768 -78 554 C-78 554.66 -78 555.32 -78 556 C-49.3076296 560.27230561 -20.91401468 561.02316637 7.875 557.5625 C8.89247314 557.44036133 9.90994629 557.31822266 10.95825195 557.19238281 C15.88116359 556.55610216 20.3207868 555.71751467 25 554 C27.11965114 553.49770054 29.2450003 553.01892851 31.375 552.5625 C36.48697211 551.41099775 41.14763355 549.95797243 46 548 C47.99640639 547.32264783 49.99504414 546.65161065 52 546 C52 545.34 52 544.68 52 544 C52.86625 543.87625 53.7325 543.7525 54.625 543.625 C57.89513853 543.01941879 60.87256899 542.11693965 64 541 C64 540.34 64 539.68 64 539 C64.68449219 538.91234375 65.36898438 538.8246875 66.07421875 538.734375 C69.69538011 537.82545866 72.63460427 536.14121448 75.8125 534.25 C76.42689941 533.89019043 77.04129883 533.53038086 77.67431641 533.15966797 C79.45384452 532.11352114 81.22696147 531.05709334 83 530 C83.88816406 529.48179687 84.77632813 528.96359375 85.69140625 528.4296875 C87.49988762 527.34912797 89.25790827 526.18462238 91 525 C91 524.34 91 523.68 91 523 C92.0828125 522.62875 92.0828125 522.62875 93.1875 522.25 C96.33173468 520.85256236 98.38825604 519.24731457 101 517 C102.01900391 516.15308594 102.01900391 516.15308594 103.05859375 515.2890625 C103.78175781 514.67804688 104.50492187 514.06703125 105.25 513.4375 C105.93578125 512.85871094 106.6215625 512.27992188 107.328125 511.68359375 C109.24632248 510.00117783 109.24632248 510.00117783 110 507 C111.32203862 506.31120677 112.65700796 505.64698887 114 505 C115.69294468 503.40781565 115.69294468 503.40781565 117.25 501.5 C118.15298828 500.43265625 118.15298828 500.43265625 119.07421875 499.34375 C122.42726249 495.26296654 125.74124876 491.15657045 129 487 C129.82371094 485.96166016 129.82371094 485.96166016 130.6640625 484.90234375 C134.32502581 480.18063978 137.25446706 475.30040387 140 470 C140.6084375 468.84628906 141.216875 467.69257813 141.84375 466.50390625 C149.61846979 451.53823403 155.28467177 436.4460501 159 420 C159.49693359 418.24042969 159.49693359 418.24042969 160.00390625 416.4453125 C161.56686047 410.24612034 161.9929533 403.84626487 162.625 397.5 C162.7590625 396.200625 162.893125 394.90125 163.03125 393.5625 C163.35932454 390.37549022 163.68208825 387.18803685 164 384 C163.01 384 162.02 384 161 384 C160.67 384.99 160.34 385.98 160 387 C158.6846659 387.70151152 157.34882408 388.36525925 156 389 C155.54882812 389.4640625 155.09765625 389.928125 154.6328125 390.40625 C149.92790222 394.99860262 143.02363013 397.56491548 137 400 C137 400.66 137 401.32 137 402 C136.43152344 402.10957031 135.86304688 402.21914063 135.27734375 402.33203125 C130.91835996 403.22711473 127.09444867 404.31958071 123.0390625 406.203125 C118.52397108 407.96764349 113.71440997 408.90848636 109 410 C109 410.66 109 411.32 109 412 C108.39414062 412.04898437 107.78828125 412.09796875 107.1640625 412.1484375 C100.12706688 412.77635403 93.01798613 413.53245867 86.34765625 415.96875 C81.85191566 417.35366892 77.34062293 417.93207689 72.6875 418.5625 C70.87839056 418.81006234 69.06976133 419.0611689 67.26171875 419.31640625 C66.46725342 419.42412354 65.67278809 419.53184082 64.85424805 419.64282227 C62.99109506 419.82204046 62.99109506 419.82204046 62 421 C59.79243097 421.2894924 57.57666819 421.51681489 55.359375 421.71875 C54.68134827 421.78155151 54.00332153 421.84435303 53.30474854 421.90905762 C51.12019276 422.11022804 48.93512067 422.30507183 46.75 422.5 C45.32288087 422.63112143 43.89579704 422.76262759 42.46875 422.89453125 C34.86572963 423.59147843 27.26384585 424.22535687 19.64550781 424.73632812 C17.31317623 424.96878642 15.26089551 425.41927613 13 426 C1.53830314 427.51966476 -10.1381014 427.15205223 -21.67163086 427.13037109 C-25.03048295 427.12505071 -28.38919905 427.13032048 -31.74804688 427.13671875 C-41.98632422 427.14030031 -52.20574782 427.04494022 -62.43359375 426.5546875 C-63.26246597 426.51594513 -64.0913382 426.47720276 -64.94532776 426.43728638 C-68.16582285 426.26176566 -70.92517753 426.02494082 -74 425 C-76.71548472 424.72062613 -79.4193237 424.48334335 -82.140625 424.28125 C-82.9410321 424.21844849 -83.74143921 424.15564697 -84.56610107 424.09094238 C-87.12713783 423.89038715 -89.68852081 423.69481673 -92.25 423.5 C-94.79714972 423.30465904 -97.34419545 423.1081826 -99.89105225 422.90905762 C-101.47473436 422.78539009 -103.05859078 422.66392799 -104.64263916 422.54504395 C-117.44999713 421.55000287 -117.44999713 421.55000287 -119 420 C-122.20174614 419.32845535 -125.45135783 418.91213418 -128.6875 418.4375 C-130.03618164 418.22963867 -130.03618164 418.22963867 -131.41210938 418.01757812 C-135.98277924 417.33684006 -140.36373443 416.82316068 -145 417 C-145 416.34 -145 415.68 -145 415 C-146.918125 414.61908203 -146.918125 414.61908203 -148.875 414.23046875 C-150.5834032 413.88315601 -152.29173266 413.53548038 -154 413.1875 C-154.83917969 413.02185547 -155.67835938 412.85621094 -156.54296875 412.68554688 C-160.60185942 411.85174375 -164.44823284 410.91572936 -168.3125 409.40625 C-171.39016327 408.23256485 -173.75764335 407.56580911 -177 407.3125 C-177.763125 407.24675781 -178.52625 407.18101562 -179.3125 407.11328125 C-179.869375 407.07589844 -180.42625 407.03851563 -181 407 C-181 406.34 -181 405.68 -181 405 C-182.62395997 404.49663233 -184.24920541 403.99741024 -185.875 403.5 C-186.77992188 403.2215625 -187.68484375 402.943125 -188.6171875 402.65625 C-190.90944647 401.91149206 -190.90944647 401.91149206 -193 402 C-193 401.34 -193 400.68 -193 400 C-193.6290625 399.76925781 -194.258125 399.53851563 -194.90625 399.30078125 C-202.08973545 396.5637002 -208.58791503 393.55526182 -214 388 C-215.05174228 387.0915608 -216.11401653 386.19514197 -217.1875 385.3125 C-218.115625 384.549375 -219.04375 383.78625 -220 383 Z " fill="#515153" transform="translate(250,28)"/>
<path d="M0 0 C2.97 0.33 5.94 0.66 9 1 C5.06691611 35.71963707 -8.18924249 71.84185474 -29 100 C-29.76699219 101.04929687 -30.53398437 102.09859375 -31.32421875 103.1796875 C-37.07230279 110.91108863 -43.3603388 118.02785197 -50 125 C-50.65355469 125.70640625 -51.30710937 126.4128125 -51.98046875 127.140625 C-84.19231081 160.93215228 -134.71859099 178.72360606 -180.68896484 179.9465332 C-183.12624127 179.98238231 -185.56249747 179.99377791 -188 180 C-189.36071463 180.02399961 -190.72139747 180.04991141 -192.08203125 180.078125 C-195.7266817 180.12392165 -199.35622407 180.08694476 -203 180 C-204.27101562 179.97164062 -205.54203125 179.94328125 -206.8515625 179.9140625 C-255.5308936 178.23343144 -301.99343147 158.22692729 -335.98828125 123.2734375 C-348.22361226 109.44632557 -348.22361226 109.44632557 -351 103 C-347.25 101.875 -347.25 101.875 -345 103 C-344.67 102.01 -344.34 101.02 -344 100 C-343.01 100 -342.02 100 -341 100 C-341.185625 100.639375 -341.37125 101.27875 -341.5625 101.9375 C-341.706875 102.618125 -341.85125 103.29875 -342 104 C-341.67 104.33 -341.34 104.66 -341 105 C-340.67 103.02 -340.34 101.04 -340 99 C-340.66 99 -341.32 99 -342 99 C-341.34 97.68 -340.68 96.36 -340 95 C-336.03935893 96.74268207 -332.25563451 99.14674729 -329 102 C-329 102.66 -329 103.32 -329 104 C-328.19949219 104.33837891 -328.19949219 104.33837891 -327.3828125 104.68359375 C-324.2216086 106.43002935 -321.60012341 108.71862865 -318.875 111.0625 C-315.16892732 114.36410547 -315.16892732 114.36410547 -311 117 C-311 117.66 -311 118.32 -311 119 C-310.40960938 119.11601563 -309.81921875 119.23203125 -309.2109375 119.3515625 C-306.87447465 120.03681486 -305.53755345 120.89344451 -303.625 122.375 C-300.57037156 124.65112703 -297.46562353 126.39397934 -294 128 C-294 128.66 -294 129.32 -294 130 C-293.21625 130.061875 -292.4325 130.12375 -291.625 130.1875 C-287.44895187 131.12351079 -284.18676767 132.81722566 -280.4140625 134.7890625 C-277.68366457 136.15867959 -274.93252913 137.15110999 -272 138 C-272 138.66 -272 139.32 -272 140 C-270.4840625 140.185625 -270.4840625 140.185625 -268.9375 140.375 C-265.12062388 140.98085335 -261.68499888 141.87193912 -258 143 C-258 143.66 -258 144.32 -258 145 C-256.081875 145.185625 -256.081875 145.185625 -254.125 145.375 C-249.01355779 145.93571465 -244.02393526 146.91969659 -239 148 C-239 148.66 -239 149.32 -239 150 C-238.15252197 150.05913574 -237.30504395 150.11827148 -236.43188477 150.17919922 C-230.31476701 150.6104617 -224.20098575 151.06097774 -218.08984375 151.5703125 C-191.96673879 153.65616709 -161.0507782 156.07688682 -136 147 C-133.88034886 146.49770054 -131.7549997 146.01892851 -129.625 145.5625 C-125.82058217 144.70986028 -122.18951017 143.80763407 -118.5625 142.375 C-115.31773981 141.12263642 -112.4378061 140.42972576 -109 140 C-109 139.34 -109 138.68 -109 138 C-107.56445975 137.49440092 -106.1264798 136.9957251 -104.6875 136.5 C-103.48673828 136.08234375 -103.48673828 136.08234375 -102.26171875 135.65625 C-100 135 -100 135 -97 135 C-97 134.34 -97 133.68 -97 133 C-95.96101562 132.49210938 -94.92203125 131.98421875 -93.8515625 131.4609375 C-80.79070404 125.66315352 -80.79070404 125.66315352 -69.40234375 117.39453125 C-68 116 -68 116 -65.375 115 C-64.199375 114.505 -64.199375 114.505 -63 114 C-62.67 113.01 -62.34 112.02 -62 111 C-61.360625 110.855625 -60.72125 110.71125 -60.0625 110.5625 C-59.381875 110.376875 -58.70125 110.19125 -58 110 C-57.70738281 109.39929688 -57.41476562 108.79859375 -57.11328125 108.1796875 C-55.80646381 105.62107652 -54.34131101 104.37318427 -52.125 102.5625 C-48.99698022 99.93315004 -46.5325627 97.2144065 -44 94 C-43.34 94 -42.68 94 -42 94 C-41.73703125 93.42765625 -41.4740625 92.8553125 -41.203125 92.265625 C-39.9232977 89.85556061 -38.45195352 87.88127512 -36.75 85.75 C-36.12867188 84.96109375 -35.50734375 84.1721875 -34.8671875 83.359375 C-34.25101562 82.58078125 -33.63484375 81.8021875 -33 81 C-28.72106083 75.58414463 -25.17486834 70.12925971 -22 64 C-21.3915625 62.84628906 -20.783125 61.69257813 -20.15625 60.50390625 C-12.39875873 45.57139745 -6.59565374 30.44678655 -3 14 C-2.85046875 13.32259766 -2.7009375 12.64519531 -2.546875 11.94726562 C-1.67067191 7.97036108 -0.82259062 3.98831814 0 0 Z " fill="#0F0F0F" transform="translate(411,434)"/>
<path d="M0 0 C0.33 0 0.66 0 1 0 C2.81140343 23.51589811 1.9752824 46.82324541 0.25732422 70.31005859 C0.09014649 72.70733015 -0.05530487 75.10625137 -0.17529297 77.50634766 C-0.62993449 85.85167663 -1.95741345 93.82739525 -3.79150391 101.95898438 C-4.24906515 103.99583848 -4.68602039 106.03636341 -5.12109375 108.078125 C-6.84253094 115.96626711 -9.04082584 123.43416272 -11.89160156 130.99951172 C-12.88492062 133.68847455 -13.73000954 136.36535885 -14.5 139.125 C-21.37772693 162.53207067 -35.08051326 184.85562159 -50.125 203.8125 C-50.62805664 204.44728271 -51.13111328 205.08206543 -51.64941406 205.73608398 C-54.5799643 209.38287304 -57.63038739 212.74342552 -61 216 C-61.7940625 216.81082031 -62.588125 217.62164063 -63.40625 218.45703125 C-66.33782647 221.3312124 -69.37722406 224.02480822 -72.5 226.6875 C-73.05558594 227.17283203 -73.61117188 227.65816406 -74.18359375 228.15820312 C-77.30063482 230.8168558 -80.08383586 232.75062674 -84 234 C-84 234.66 -84 235.32 -84 236 C-85.57421875 237.18359375 -85.57421875 237.18359375 -87.6875 238.4375 C-88.41582031 238.87320313 -89.14414062 239.30890625 -89.89453125 239.7578125 C-90.58933594 240.16773438 -91.28414063 240.57765625 -92 241 C-92.94875 241.598125 -93.8975 242.19625 -94.875 242.8125 C-97 244 -97 244 -99 244 C-99 244.66 -99 245.32 -99 246 C-103.455 247.485 -103.455 247.485 -108 249 C-108 249.66 -108 250.32 -108 251 C-109.26839526 251.50615298 -110.53983102 252.00469099 -111.8125 252.5 C-112.87404297 252.91765625 -112.87404297 252.91765625 -113.95703125 253.34375 C-116 254 -116 254 -119 254 C-119 254.66 -119 255.32 -119 256 C-119.845625 256.25394531 -120.69125 256.50789063 -121.5625 256.76953125 C-128.85616101 258.94892169 -128.85616101 258.94892169 -136 261.5625 C-140.48509291 263.31836616 -145.15190666 264.24683714 -149.8515625 265.25390625 C-152.95116323 265.91756926 -152.95116323 265.91756926 -155.62890625 266.9921875 C-160.76293249 268.52704123 -165.99837599 268.96855001 -171.3125 269.5625 C-173.496532 269.8099644 -175.68015647 270.0610622 -177.86328125 270.31640625 C-179.30634644 270.47798218 -179.30634644 270.47798218 -180.77856445 270.64282227 C-182.96755219 270.7722561 -182.96755219 270.7722561 -184 272 C-198.73583633 274.43592397 -216.26416367 274.43592397 -231 272 C-231.33 271.67 -231.66 271.34 -232 271 C-233.88844492 270.66605848 -235.78675706 270.38760147 -237.6875 270.1328125 C-238.86183594 269.96910156 -240.03617188 269.80539062 -241.24609375 269.63671875 C-243.71697493 269.29989728 -246.18832192 268.96647253 -248.66015625 268.63671875 C-254.69621395 267.78943753 -260.34400354 266.79892835 -266.07373047 264.70019531 C-268.8522797 263.69019795 -271.69098998 263.00562311 -274.5625 262.3125 C-275.59503906 262.06113281 -276.62757813 261.80976562 -277.69140625 261.55078125 C-278.83416016 261.27814453 -278.83416016 261.27814453 -280 261 C-280 260.34 -280 259.68 -280 259 C-280.60328125 258.86722656 -281.2065625 258.73445313 -281.828125 258.59765625 C-282.62734375 258.42105469 -283.4265625 258.24445313 -284.25 258.0625 C-285.43335938 257.80146484 -285.43335938 257.80146484 -286.640625 257.53515625 C-288.76878703 257.052444 -290.88532842 256.53836822 -293 256 C-293 255.34 -293 254.68 -293 254 C-293.54817383 253.84289551 -294.09634766 253.68579102 -294.66113281 253.52392578 C-300.58564938 251.7051724 -305.53086621 249.18587184 -310.75 245.875 C-311.52496826 245.39144043 -312.29993652 244.90788086 -313.09838867 244.40966797 C-331.07750285 233.10617867 -331.07750285 233.10617867 -338 226 C-339.11204481 225.04716865 -340.235557 224.10739179 -341.375 223.1875 C-345.74500609 219.48686027 -350.57718381 215.17352419 -352.94921875 209.8828125 C-353.83555593 207.85889166 -353.83555593 207.85889166 -355.81640625 207.16796875 C-359.15249934 205.38354687 -360.85890861 202.37149897 -362.9375 199.3125 C-363.35451172 198.71244141 -363.77152344 198.11238281 -364.20117188 197.49414062 C-365.04851329 196.27485954 -365.89140963 195.05247811 -366.72998047 193.82714844 C-367.97501179 192.03594998 -369.26800943 190.28786783 -370.56640625 188.53515625 C-373.15105802 184.92736049 -375.089291 181.12099322 -377 177.125 C-379.11719327 172.77803372 -381.23469959 168.48303445 -383.6875 164.3125 C-386.78352209 158.79706991 -388.8933686 152.94765971 -391 147 C-391.2980957 146.17081055 -391.59619141 145.34162109 -391.90332031 144.48730469 C-396.04201182 132.88824005 -399.65235125 121.23576832 -402.5 109.25 C-402.88273071 107.68149292 -402.88273071 107.68149292 -403.27319336 106.08129883 C-404.88711332 98.96792819 -405.29170536 92.28291054 -405 85 C-404.67 85 -404.34 85 -404 85 C-403.86013672 85.69222656 -403.72027344 86.38445312 -403.57617188 87.09765625 C-392.05928432 143.31191767 -367.08064699 195.87105359 -318.19482422 228.57177734 C-284.29643704 250.63023841 -244.29589496 259.87051319 -204.10400391 259.03710938 C-202.63769066 259.01124727 -201.17112636 258.99788418 -199.70458984 258.99414062 C-151.39654177 258.8010243 -103.38862992 241.00326802 -68 208 C-66.59427734 206.71609375 -66.59427734 206.71609375 -65.16015625 205.40625 C-53.21888121 194.03034379 -43.30145346 180.21288029 -35 166 C-34.58041016 165.28521484 -34.16082031 164.57042969 -33.72851562 163.83398438 C-4.76811527 113.65004975 -1.10520746 56.59920153 0 0 Z " fill="#79787D" transform="translate(425,354)"/>
<path d="M0 0 C0.33 0 0.66 0 1 0 C0.67 4.95 0.34 9.9 0 15 C-0.99 15 -1.98 15 -3 15 C-3.33 16.32 -3.66 17.64 -4 19 C-4.639375 19.103125 -5.27875 19.20625 -5.9375 19.3125 C-6.618125 19.539375 -7.29875 19.76625 -8 20 C-8.33 20.99 -8.66 21.98 -9 23 C-11.36328125 24.53515625 -11.36328125 24.53515625 -14.3125 26.0625 C-15.76076172 26.82240234 -15.76076172 26.82240234 -17.23828125 27.59765625 C-18.14964844 28.06042969 -19.06101562 28.52320313 -20 29 C-20.71542969 29.39058594 -21.43085938 29.78117187 -22.16796875 30.18359375 C-24 31 -24 31 -27 31 C-27 31.66 -27 32.32 -27 33 C-29.91875797 33.97291932 -32.83768225 34.94526635 -35.7578125 35.9140625 C-37.69444017 36.5627161 -39.62799142 37.22085325 -41.5546875 37.8984375 C-46.06007854 39.47298593 -50.24977834 40.49465727 -55 41 C-55 41.66 -55 42.32 -55 43 C-55.57443848 43.11069824 -56.14887695 43.22139648 -56.74072266 43.33544922 C-59.36963602 43.84449329 -61.99730712 44.35969444 -64.625 44.875 C-65.52863281 45.04902344 -66.43226563 45.22304688 -67.36328125 45.40234375 C-70.99956044 46.11898271 -74.4957516 46.8262343 -78.00390625 48.03515625 C-82.35908768 49.4376723 -86.78786006 49.94948427 -91.3125 50.5625 C-93.12160944 50.81006234 -94.93023867 51.0611689 -96.73828125 51.31640625 C-97.53274658 51.42412354 -98.32721191 51.53184082 -99.14575195 51.64282227 C-101.00890494 51.82204046 -101.00890494 51.82204046 -102 53 C-104.20756903 53.2894924 -106.42333181 53.51681489 -108.640625 53.71875 C-109.31865173 53.78155151 -109.99667847 53.84435303 -110.69525146 53.90905762 C-112.87980724 54.11022804 -115.06487933 54.30507183 -117.25 54.5 C-118.67711913 54.63112143 -120.10420296 54.76262759 -121.53125 54.89453125 C-129.13427037 55.59147843 -136.73615415 56.22535687 -144.35449219 56.73632812 C-146.68682377 56.96878642 -148.73910449 57.41927613 -151 58 C-162.46169686 59.51966476 -174.1381014 59.15205223 -185.67163086 59.13037109 C-189.03048295 59.12505071 -192.38919905 59.13032048 -195.74804688 59.13671875 C-205.98632422 59.14030031 -216.20574782 59.04494022 -226.43359375 58.5546875 C-227.26246597 58.51594513 -228.0913382 58.47720276 -228.94532776 58.43728638 C-232.16582285 58.26176566 -234.92517753 58.02494082 -238 57 C-240.71548472 56.72062613 -243.4193237 56.48334335 -246.140625 56.28125 C-246.9410321 56.21844849 -247.74143921 56.15564697 -248.56610107 56.09094238 C-251.12713783 55.89038715 -253.68852081 55.69481673 -256.25 55.5 C-258.79714972 55.30465904 -261.34419545 55.1081826 -263.89105225 54.90905762 C-265.47473436 54.78539009 -267.05859078 54.66392799 -268.64263916 54.54504395 C-281.44999713 53.55000287 -281.44999713 53.55000287 -283 52 C-284.92028007 51.6307947 -286.85127132 51.31695937 -288.78515625 51.02734375 C-290.53989258 50.76147461 -290.53989258 50.76147461 -292.33007812 50.49023438 C-294.17762695 50.21663086 -294.17762695 50.21663086 -296.0625 49.9375 C-297.29806641 49.75123047 -298.53363281 49.56496094 -299.80664062 49.37304688 C-302.87056079 48.91168438 -305.935008 48.4541781 -309 48 C-309 47.34 -309 46.68 -309 46 C-309.61746094 45.95101562 -310.23492187 45.90203125 -310.87109375 45.8515625 C-318.99013255 45.13481326 -326.35883 43.74054534 -333.9375 40.73046875 C-337.53579324 39.45607323 -341.26030945 38.73581874 -345 38 C-345 37.34 -345 36.68 -345 36 C-345.69867188 35.86722656 -346.39734375 35.73445313 -347.1171875 35.59765625 C-348.02726562 35.42105469 -348.93734375 35.24445313 -349.875 35.0625 C-350.77992188 34.88847656 -351.68484375 34.71445312 -352.6171875 34.53515625 C-355 34 -355 34 -357 33 C-357 32.34 -357 31.68 -357 31 C-357.70125 30.896875 -358.4025 30.79375 -359.125 30.6875 C-365.12032959 29.25383423 -371.10901884 25.7613383 -376 22 C-376 21.34 -376 20.68 -376 20 C-376.78375 19.731875 -377.5675 19.46375 -378.375 19.1875 C-381 18 -381 18 -383 15 C-383.27206214 22.40613592 -382.58931302 29.35671672 -381.4453125 36.671875 C-380.88717384 40.84322706 -380.85515802 44.79958253 -381 49 C-382.85941551 45.77167494 -383.42759536 42.98810942 -383.8515625 39.30078125 C-383.98071045 38.18098877 -384.1098584 37.06119629 -384.24291992 35.9074707 C-384.43204956 34.12796021 -384.43204956 34.12796021 -384.625 32.3125 C-384.75688721 31.1061792 -384.88877441 29.8998584 -385.0246582 28.65698242 C-385.98067634 19.40023025 -386.35395402 10.29457042 -386 1 C-385.13375 1.804375 -384.2675 2.60875 -383.375 3.4375 C-336.01501612 43.67924983 -255.54923179 45.19407933 -196.78149414 45.18530273 C-193.98487827 45.1852219 -191.18842771 45.19211186 -188.3918457 45.20581055 C-169.84686402 45.29510577 -151.47927946 44.7288032 -133 43 C-132.19505096 42.92665436 -131.39010193 42.85330872 -130.5607605 42.77774048 C-126.01081365 42.35674381 -121.47406523 41.86186731 -116.9375 41.3125 C-116.27042023 41.23174225 -115.60334045 41.1509845 -114.91604614 41.06777954 C-77.04180127 36.40092349 -26.97431148 29.48354975 0 0 Z " fill="#77777B" transform="translate(414,397)"/>
<path d="M0 0 C11.67236845 0.5349989 23.17610322 1.59022618 34.75 3.1875 C35.54481781 3.29604309 36.33963562 3.40458618 37.15853882 3.51641846 C117.19825538 14.53803279 117.19825538 14.53803279 135.48828125 36.8125 C138.09084232 40.81919196 138.55078205 44.31835262 138 49 C137.01 49.99 137.01 49.99 136 51 C134.99406757 49.8803014 133.9954151 48.7540588 133 47.625 C132.443125 46.99851562 131.88625 46.37203125 131.3125 45.7265625 C130 44 130 44 130 42 C127.34771188 40.92474806 124.71631546 39.90543849 122 39 C122 38.34 122 37.68 122 37 C121.278125 36.87625 120.55625 36.7525 119.8125 36.625 C117.04278106 36.0095069 114.6029646 35.11555626 112 34 C112 33.34 112 32.68 112 32 C111.071875 31.896875 110.14375 31.79375 109.1875 31.6875 C102.46727669 30.72358918 95.94227038 28.71847053 89.5625 26.4375 C85.08399125 24.89096461 80.57733213 24.18556877 75.89453125 23.52734375 C73 23 73 23 70.40625 22.0390625 C65.26261115 20.4700167 60.01988517 20.03349101 54.6875 19.4375 C52.503468 19.1900356 50.31984353 18.9389378 48.13671875 18.68359375 C47.17467529 18.57587646 46.21263184 18.46815918 45.22143555 18.35717773 C43 18 43 18 42 17 C39.68661164 16.71113366 37.36553098 16.48352247 35.04296875 16.28125 C34.34359695 16.21844849 33.64422516 16.15564697 32.92366028 16.09094238 C30.6786271 15.88970937 28.43313836 15.69435485 26.1875 15.5 C23.95262053 15.30520259 21.71789437 15.10906353 19.48347473 14.90905762 C17.44785962 14.72701252 15.41180414 14.54991195 13.37573242 14.37304688 C10.7969054 14.08806476 8.47731825 13.73192601 6 13 C6.20157715 13.53890869 6.4031543 14.07781738 6.61083984 14.63305664 C7.53499011 17.10851602 8.4550192 19.5854882 9.375 22.0625 C9.85066406 23.33383789 9.85066406 23.33383789 10.3359375 24.63085938 C15.2920868 38.00213719 15.2920868 38.00213719 15.125 45.4375 C15.10695313 46.48808594 15.08890625 47.53867187 15.0703125 48.62109375 C15.04710937 49.40613281 15.02390625 50.19117188 15 51 C10.55172341 50.27966139 8.44590275 48.91576386 5 46 C3.68861096 45.29114106 2.36222983 44.60543548 1 44 C1 43.34 1 42.68 1 42 C0.030625 41.731875 -0.93875 41.46375 -1.9375 41.1875 C-2.948125 40.795625 -3.95875 40.40375 -5 40 C-5.33 39.01 -5.66 38.02 -6 37 C-8.92914165 35.82917122 -8.92914165 35.82917122 -12 35 C-12.66 34.67 -13.32 34.34 -14 34 C-14 33.34 -14 32.68 -14 32 C-15.11375 31.566875 -15.11375 31.566875 -16.25 31.125 C-18.56739797 30.17697356 -20.77917115 29.15154089 -23 28 C-23 27.34 -23 26.68 -23 26 C-23.78375 25.690625 -24.5675 25.38125 -25.375 25.0625 C-28 24 -28 24 -30 23 C-30 22.34 -30 21.68 -30 21 C-31.32 21 -32.64 21 -34 21 C-34 21.66 -34 22.32 -34 23 C-35.38251358 23.97787546 -36.77391171 24.94557388 -38.20703125 25.84765625 C-40.11624675 27.07471197 -41.92596252 28.40013578 -43.75 29.75 C-47 32 -47 32 -49 32 C-49 32.66 -49 33.32 -49 34 C-53.38461538 37 -53.38461538 37 -56 37 C-56 37.66 -56 38.32 -56 39 C-60.38461538 42 -60.38461538 42 -63 42 C-63 42.66 -63 43.32 -63 44 C-67.38461538 47 -67.38461538 47 -70 47 C-70 47.66 -70 48.32 -70 49 C-72.90548882 51.04169485 -74.40142046 52 -78 52 C-78 47.71 -78 43.42 -78 39 C-76.99582031 38.45214844 -75.99164063 37.90429688 -74.95703125 37.33984375 C-70.95040426 35.04761497 -67.34120091 32.37346776 -63.6875 29.5625 C-62.28998767 28.50268518 -60.8915109 27.44414117 -59.4921875 26.38671875 C-58.76483398 25.83677246 -58.03748047 25.28682617 -57.28808594 24.72021484 C-53.32098398 21.73769239 -49.3230136 18.79879379 -45.3125 15.875 C-44.18171021 15.04077515 -44.18171021 15.04077515 -43.02807617 14.18969727 C-35.26488696 8.55050682 -35.26488696 8.55050682 -32 8 C-29.328125 9.39453125 -29.328125 9.39453125 -26.25 11.8125 C-25.02904872 12.74224345 -23.80479981 13.66766489 -22.578125 14.58984375 C-21.87623047 15.12077637 -21.17433594 15.65170898 -20.45117188 16.19873047 C-15.95141291 19.50542585 -11.31122748 22.61061277 -6.68493652 25.73641968 C-5.02455037 26.85841032 -3.36626233 27.98350385 -1.70800781 29.10864258 C3.18185611 32.42535484 8.08114083 35.7264956 13 39 C11.58744922 34.87357924 10.16920161 30.74913759 8.75 26.625 C8.35425781 25.46871094 7.95851563 24.31242187 7.55078125 23.12109375 C5.44095005 16.99912454 3.24769702 10.9593913 0.70800781 5.00146484 C0 3 0 3 0 0 Z " fill="#828185" transform="translate(254,334)"/>
<path d="M0 0 C-0.44994757 1.79379098 -0.91024143 3.58498928 -1.375 5.375 C-1.63023437 6.37273437 -1.88546875 7.37046875 -2.1484375 8.3984375 C-3 11 -3 11 -5 13 C-7.54988269 13.4425725 -10.02826548 13.77466135 -12.59765625 14.03515625 C-13.34712021 14.11873886 -14.09658417 14.20232147 -14.86875916 14.28843689 C-17.26585224 14.55471122 -19.6639902 14.80933063 -22.0625 15.0625 C-24.46437163 15.32074256 -26.86590478 15.5814785 -29.26695251 15.84727478 C-30.7621719 16.0123284 -32.25791346 16.17272758 -33.75416565 16.32814026 C-37.17071915 16.43674919 -37.17071915 16.43674919 -40 18 C-41.47150296 18.22698013 -42.95186468 18.3969553 -44.43359375 18.54296875 C-55.76884815 19.75453198 -66.82844793 21.4072216 -77.9375 24 C-79.54226196 24.37354614 -79.54226196 24.37354614 -81.17944336 24.75463867 C-88.392814 26.49019077 -95.33461971 28.68599574 -102.3125 31.1875 C-105 32 -105 32 -109 32 C-109 32.66 -109 33.32 -109 34 C-112.3 34.99 -115.6 35.98 -119 37 C-119 37.66 -119 38.32 -119 39 C-120.3303125 39.5878125 -120.3303125 39.5878125 -121.6875 40.1875 C-125.15286101 42.08364093 -127.33107495 44.11467562 -130 47 C-130.556875 47.515625 -131.11375 48.03125 -131.6875 48.5625 C-133.2141682 50.23456517 -134.07757479 51.94228223 -135 54 C-137.71277084 49.93084374 -137.62992197 46.77624378 -137 42 C-133.64553551 32.05712621 -122.92389752 26.67890891 -114.12890625 22.296875 C-83.8978042 8.21939058 -48.18677529 4.57966346 -15.421875 0.84765625 C-14.67231033 0.76054382 -13.92274567 0.6734314 -13.15046692 0.5836792 C-8.73752151 0.09918049 -4.43955054 -0.07909544 0 0 Z " fill="#77767B" transform="translate(189,334)"/>
<path d="M0 0 C0.33 1.98 0.66 3.96 1 6 C1.99 6.33 2.98 6.66 4 7 C5.125 13.625 5.125 13.625 4 17 C4.66 17 5.32 17 6 17 C6 18.65 6 20.3 6 22 C6.66 22 7.32 22 8 22 C8.33 25.96 8.66 29.92 9 34 C9.66 34 10.32 34 11 34 C11.27880005 35.09501831 11.27880005 35.09501831 11.56323242 36.2121582 C12.42752975 39.58171923 13.30741234 42.9470302 14.1875 46.3125 C14.47947266 47.46041016 14.77144531 48.60832031 15.07226562 49.79101562 C16.81661921 56.41205664 18.90863691 62.52031198 21.89990234 68.68432617 C22.88866385 70.76564061 23.69793538 72.82032324 24.4375 75 C30.66773231 92.08963166 42.84991721 106.8029713 55 120 C54.67 120.66 54.34 121.32 54 122 C52.68 120.68 51.36 119.36 50 118 C46.88214887 118.64644661 46.88214887 118.64644661 46 121 C46.66 121 47.32 121 48 121 C48.625 122.8125 48.625 122.8125 49 125 C48.34 125.99 47.68 126.98 47 128 C45.68 127.34 44.36 126.68 43 126 C43.99 126 44.98 126 46 126 C46.495 124.02 46.495 124.02 47 122 C43.88214887 122.64644661 43.88214887 122.64644661 43 125 C40.59677663 125.99443726 39.4590327 126.17949392 37.01391602 125.22338867 C34.81521711 123.88775039 33.93360132 122.84552094 32.58984375 120.67578125 C32.16292236 119.9890332 31.73600098 119.30228516 31.29614258 118.59472656 C30.84779053 117.8415918 30.39943848 117.08845703 29.9375 116.3125 C29.46143311 115.5194043 28.98536621 114.72630859 28.49487305 113.90917969 C12.97537602 87.50233891 3.16723016 59.15380582 -2.55102539 29.13989258 C-2.95481489 27.21536023 -3.50048251 25.3219116 -4.0625 23.4375 C-6.16949378 15.71185615 -6.13394889 7.96251735 -6 0 C-3.50907189 -1.24546405 -2.58919267 -0.7767578 0 0 Z " fill="#414141" transform="translate(23,412)"/>
<path d="M0 0 C11.67236845 0.5349989 23.17610322 1.59022618 34.75 3.1875 C35.54481781 3.29604309 36.33963562 3.40458618 37.15853882 3.51641846 C117.19825538 14.53803279 117.19825538 14.53803279 135.48828125 36.8125 C138.09084232 40.81919196 138.55078205 44.31835262 138 49 C137.01 49.99 137.01 49.99 136 51 C134.99406757 49.8803014 133.9954151 48.7540588 133 47.625 C132.443125 46.99851562 131.88625 46.37203125 131.3125 45.7265625 C130 44 130 44 130 42 C127.34771188 40.92474806 124.71631546 39.90543849 122 39 C122 38.34 122 37.68 122 37 C120.9171875 36.814375 120.9171875 36.814375 119.8125 36.625 C117.04278106 36.0095069 114.6029646 35.11555626 112 34 C112 33.01 112 32.02 112 31 C111.14019531 30.88011719 110.28039062 30.76023437 109.39453125 30.63671875 C105.96882676 29.99415277 102.96131156 29.00122829 99.6875 27.8125 C71.73446095 18.26798761 38.53524835 11.62196544 8.875 11.9375 C7.75867188 11.94652344 6.64234375 11.95554687 5.4921875 11.96484375 C4.66976563 11.97644531 3.84734375 11.98804688 3 12 C2.49440092 10.56445975 1.9957251 9.1264798 1.5 7.6875 C1.2215625 6.88699219 0.943125 6.08648437 0.65625 5.26171875 C0 3 0 3 0 0 Z " fill="#7B7A7F" transform="translate(254,334)"/>
<path d="M0 0 C0.33 0 0.66 0 1 0 C2.81140343 23.51589811 1.9752824 46.82324541 0.25732422 70.31005859 C0.09014649 72.70733015 -0.05530487 75.10625137 -0.17529297 77.50634766 C-0.62993449 85.85167663 -1.95741345 93.82739525 -3.79150391 101.95898438 C-4.24906515 103.99583848 -4.68602039 106.03636341 -5.12109375 108.078125 C-6.84253094 115.96626711 -9.04082584 123.43416272 -11.89160156 130.99951172 C-12.88492062 133.68847455 -13.73000954 136.36535885 -14.5 139.125 C-21.37772693 162.53207067 -35.08051326 184.85562159 -50.125 203.8125 C-50.62805664 204.44728271 -51.13111328 205.08206543 -51.64941406 205.73608398 C-54.5799643 209.38287304 -57.63038739 212.74342552 -61 216 C-61.7940625 216.81082031 -62.588125 217.62164063 -63.40625 218.45703125 C-66.33782647 221.3312124 -69.37722406 224.02480822 -72.5 226.6875 C-73.05558594 227.17283203 -73.61117188 227.65816406 -74.18359375 228.15820312 C-77.30063482 230.8168558 -80.08383586 232.75062674 -84 234 C-84 234.66 -84 235.32 -84 236 C-85.57421875 237.18359375 -85.57421875 237.18359375 -87.6875 238.4375 C-88.41582031 238.87320313 -89.14414062 239.30890625 -89.89453125 239.7578125 C-90.58933594 240.16773438 -91.28414062 240.57765625 -92 241 C-92.94875 241.598125 -93.8975 242.19625 -94.875 242.8125 C-97 244 -97 244 -99 244 C-99 244.66 -99 245.32 -99 246 C-101.97 246.99 -104.94 247.98 -108 249 C-108 249.66 -108 250.32 -108 251 C-109.26839526 251.50615298 -110.53983102 252.00469099 -111.8125 252.5 C-112.87404297 252.91765625 -112.87404297 252.91765625 -113.95703125 253.34375 C-116 254 -116 254 -119 254 C-119 254.66 -119 255.32 -119 256 C-119.845625 256.25394531 -120.69125 256.50789063 -121.5625 256.76953125 C-128.85616101 258.94892169 -128.85616101 258.94892169 -136 261.5625 C-140.48509291 263.31836616 -145.15190666 264.24683714 -149.8515625 265.25390625 C-152.95116323 265.91756926 -152.95116323 265.91756926 -155.62890625 266.9921875 C-160.76293249 268.52704123 -165.99837599 268.96855001 -171.3125 269.5625 C-173.496532 269.8099644 -175.68015647 270.0610622 -177.86328125 270.31640625 C-179.30634644 270.47798218 -179.30634644 270.47798218 -180.77856445 270.64282227 C-182.96755219 270.7722561 -182.96755219 270.7722561 -184 272 C-198.73583633 274.43592397 -216.26416367 274.43592397 -231 272 C-231.33 271.67 -231.66 271.34 -232 271 C-233.88844492 270.66605848 -235.78675706 270.38760147 -237.6875 270.1328125 C-239.44900391 269.88724609 -239.44900391 269.88724609 -241.24609375 269.63671875 C-243.71697493 269.29989728 -246.18832192 268.96647253 -248.66015625 268.63671875 C-254.69621395 267.78943753 -260.34400354 266.79892835 -266.07373047 264.70019531 C-268.8522797 263.69019795 -271.69098998 263.00562311 -274.5625 262.3125 C-275.59503906 262.06113281 -276.62757813 261.80976562 -277.69140625 261.55078125 C-278.45324219 261.36902344 -279.21507812 261.18726563 -280 261 C-280 260.34 -280 259.68 -280 259 C-280.60328125 258.86722656 -281.2065625 258.73445313 -281.828125 258.59765625 C-282.62734375 258.42105469 -283.4265625 258.24445313 -284.25 258.0625 C-285.03890625 257.88847656 -285.8278125 257.71445312 -286.640625 257.53515625 C-288.76878703 257.052444 -290.88532842 256.53836822 -293 256 C-293 255.34 -293 254.68 -293 254 C-293.54817383 253.84289551 -294.09634766 253.68579102 -294.66113281 253.52392578 C-300.58552866 251.70520946 -305.53114825 249.186212 -310.75 245.875 C-311.52279297 245.39216553 -312.29558594 244.90933105 -313.09179688 244.41186523 C-315.40459807 242.95632131 -317.70475911 241.48305552 -320 240 C-320.67869141 239.56220215 -321.35738281 239.1244043 -322.05664062 238.67333984 C-333.38545803 231.29583489 -333.38545803 231.29583489 -335 227 C-331.45251381 228.585935 -328.62153713 230.7425206 -325.5625 233.125 C-281.81786638 266.36743646 -225.30723671 273.62738619 -172 267 C-165.5736518 266.03797183 -159.29145569 264.60989542 -153 263 C-152.17081055 262.79391113 -151.34162109 262.58782227 -150.48730469 262.37548828 C-125.53863057 256.08420626 -102.51366031 245.50480338 -82 230 C-81.18660156 229.4121875 -80.37320313 228.824375 -79.53515625 228.21875 C-60.7707502 214.10535057 -45.47100103 195.37597719 -34 175 C-33.61102539 174.31099609 -33.22205078 173.62199219 -32.82128906 172.91210938 C-8.14396653 128.7202453 -0.73253295 80.28226758 -0.33044434 30.26367188 C-0.29983983 26.82930545 -0.25360277 23.39514537 -0.20898438 19.9609375 C-0.12551576 13.3073907 -0.05660991 6.65382687 0 0 Z " fill="#F6F6F7" transform="translate(425,354)"/>
<path d="M0 0 C0.33 1.32 0.66 2.64 1 4 C0.01 4 -0.98 4 -2 4 C-2.33 5.32 -2.66 6.64 -3 8 C-3.639375 8.103125 -4.27875 8.20625 -4.9375 8.3125 C-5.618125 8.539375 -6.29875 8.76625 -7 9 C-7.33 9.99 -7.66 10.98 -8 12 C-10.36328125 13.53515625 -10.36328125 13.53515625 -13.3125 15.0625 C-14.27800781 15.56910156 -15.24351562 16.07570313 -16.23828125 16.59765625 C-17.14964844 17.06042969 -18.06101562 17.52320313 -19 18 C-19.71542969 18.39058594 -20.43085938 18.78117187 -21.16796875 19.18359375 C-23 20 -23 20 -26 20 C-26 20.66 -26 21.32 -26 22 C-28.91875797 22.97291932 -31.83768225 23.94526635 -34.7578125 24.9140625 C-36.69444017 25.5627161 -38.62799142 26.22085325 -40.5546875 26.8984375 C-45.06007854 28.47298593 -49.24977834 29.49465727 -54 30 C-54 30.66 -54 31.32 -54 32 C-54.57443848 32.11069824 -55.14887695 32.22139648 -55.74072266 32.33544922 C-58.36963602 32.84449329 -60.99730712 33.35969444 -63.625 33.875 C-64.52863281 34.04902344 -65.43226563 34.22304688 -66.36328125 34.40234375 C-69.99956044 35.11898271 -73.4957516 35.8262343 -77.00390625 37.03515625 C-81.35908768 38.4376723 -85.78786006 38.94948427 -90.3125 39.5625 C-92.12160944 39.81006234 -93.93023867 40.0611689 -95.73828125 40.31640625 C-96.53274658 40.42412354 -97.32721191 40.53184082 -98.14575195 40.64282227 C-100.00890494 40.82204046 -100.00890494 40.82204046 -101 42 C-103.20756903 42.2894924 -105.42333181 42.51681489 -107.640625 42.71875 C-108.31865173 42.78155151 -108.99667847 42.84435303 -109.69525146 42.90905762 C-111.87980724 43.11022804 -114.06487933 43.30507183 -116.25 43.5 C-117.67711913 43.63112143 -119.10420296 43.76262759 -120.53125 43.89453125 C-128.13427037 44.59147843 -135.73615415 45.22535687 -143.35449219 45.73632812 C-145.68682377 45.96878642 -147.73910449 46.41927613 -150 47 C-161.46169686 48.51966476 -173.1381014 48.15205223 -184.67163086 48.13037109 C-188.03048295 48.12505071 -191.38919905 48.13032048 -194.74804688 48.13671875 C-204.98632422 48.14030031 -215.20574782 48.04494022 -225.43359375 47.5546875 C-226.26246597 47.51594513 -227.0913382 47.47720276 -227.94532776 47.43728638 C-231.16582285 47.26176566 -233.92517753 47.02494082 -237 46 C-239.71548472 45.72062613 -242.4193237 45.48334335 -245.140625 45.28125 C-245.9410321 45.21844849 -246.74143921 45.15564697 -247.56610107 45.09094238 C-250.12713783 44.89038715 -252.68852081 44.69481673 -255.25 44.5 C-257.79714972 44.30465904 -260.34419545 44.1081826 -262.89105225 43.90905762 C-264.47473436 43.78539009 -266.05859078 43.66392799 -267.64263916 43.54504395 C-280.44999713 42.55000287 -280.44999713 42.55000287 -282 41 C-283.92028007 40.6307947 -285.85127132 40.31695937 -287.78515625 40.02734375 C-289.53989258 39.76147461 -289.53989258 39.76147461 -291.33007812 39.49023438 C-293.17762695 39.21663086 -293.17762695 39.21663086 -295.0625 38.9375 C-296.29806641 38.75123047 -297.53363281 38.56496094 -298.80664062 38.37304688 C-301.87056079 37.91168438 -304.935008 37.4541781 -308 37 C-308 36.34 -308 35.68 -308 35 C-308.61746094 34.95101562 -309.23492187 34.90203125 -309.87109375 34.8515625 C-317.99013255 34.13481326 -325.35883 32.74054534 -332.9375 29.73046875 C-336.53579324 28.45607323 -340.26030945 27.73581874 -344 27 C-344 26.34 -344 25.68 -344 25 C-345.04800781 24.80083984 -345.04800781 24.80083984 -346.1171875 24.59765625 C-347.02726562 24.42105469 -347.93734375 24.24445313 -348.875 24.0625 C-350.23238281 23.80146484 -350.23238281 23.80146484 -351.6171875 23.53515625 C-354 23 -354 23 -356 22 C-356 21.34 -356 20.68 -356 20 C-356.70125 19.896875 -357.4025 19.79375 -358.125 19.6875 C-364.12032959 18.25383423 -370.10901884 14.7613383 -375 11 C-375 10.34 -375 9.68 -375 9 C-372.5959472 10.18703854 -370.21904082 11.41225354 -367.84765625 12.6640625 C-321.70571033 36.78696012 -265.34725829 44.06834852 -213.89453125 44.203125 C-213.14567846 44.20595238 -212.39682568 44.20877975 -211.62528038 44.21169281 C-207.64268031 44.22657727 -203.66011529 44.23586785 -199.67749023 44.24023438 C-196.47164198 44.24456704 -193.26607077 44.25826899 -190.06030273 44.28125 C-167.20546637 44.44169445 -144.73331298 43.37249105 -122 41 C-120.25595131 40.81981323 -120.25595131 40.81981323 -118.47666931 40.63598633 C-79.10549217 36.51126965 -29.49964404 28.78173235 0 0 Z " fill="#F4F4F4" transform="translate(413,408)"/>
<path d="M0 0 C0.66 0 1.32 0 2 0 C1.67 1.65 1.34 3.3 1 5 C0.67 5 0.34 5 0 5 C0 3.35 0 1.7 0 0 Z M-1 5 C0 8 0 8 -0.9375 10.1875 C-1.288125 10.785625 -1.63875 11.38375 -2 12 C-2 11.01 -2 10.02 -2 9 C-6.31305552 9.30512503 -10.62531495 9.62032833 -14.9375 9.9375 C-16.16919922 10.02451172 -17.40089844 10.11152344 -18.66992188 10.20117188 C-20.4246582 10.33168945 -20.4246582 10.33168945 -22.21484375 10.46484375 C-23.84087524 10.58267212 -23.84087524 10.58267212 -25.49975586 10.70288086 C-27.93732551 10.73108434 -27.93732551 10.73108434 -29 12 C-30.47307386 12.33053795 -31.95760418 12.61042712 -33.4453125 12.8671875 C-34.81429687 13.11275391 -34.81429687 13.11275391 -36.2109375 13.36328125 C-38.12958193 13.70020139 -40.04884382 14.03362703 -41.96875 14.36328125 C-47.4116811 15.34666796 -51.98452908 16.68950216 -57 19 C-58.63200348 19.44946193 -60.27760792 19.85552158 -61.9375 20.1875 C-62.70964844 20.34605469 -63.48179687 20.50460938 -64.27734375 20.66796875 C-64.84582031 20.77753906 -65.41429687 20.88710937 -66 21 C-66 21.66 -66 22.32 -66 23 C-66.64066406 23.24234375 -67.28132813 23.4846875 -67.94140625 23.734375 C-72.10264468 25.34677737 -76.10546352 26.94748881 -79.9375 29.25 C-83 31 -83 31 -86 31 C-86 31.66 -86 32.32 -86 33 C-88.05742739 34.41219868 -90.1150474 35.71470533 -92.25 37 C-101.36577219 42.67757108 -109.99960532 49.03506528 -116.76953125 57.47265625 C-119.24764227 60.54866072 -121.97568059 63.26834328 -125.1875 65.5625 C-127.27009224 67.21421109 -127.85201481 68.63228055 -129 71 C-129.61101562 71.60457031 -130.22203125 72.20914063 -130.8515625 72.83203125 C-133.0120134 75.01212261 -134.65427859 77.21334965 -136.375 79.75 C-138.54956155 82.92355884 -140.76372396 86.02570427 -143.125 89.0625 C-146.21273941 93.15781753 -148.60399551 97.47421373 -151 102 C-151.91265625 103.65515625 -151.91265625 103.65515625 -152.84375 105.34375 C-161.80777194 121.67576071 -169.72325104 139.17679627 -174.296875 157.28515625 C-174.78234083 159.15959374 -175.31694958 161.02174535 -175.890625 162.87109375 C-179.9428562 176.00868458 -182.31834541 189.65703846 -184.52246094 203.21337891 C-184.6877832 204.21159668 -184.85310547 205.20981445 -185.0234375 206.23828125 C-185.16442871 207.13200439 -185.30541992 208.02572754 -185.45068359 208.9465332 C-185.63195801 209.62417725 -185.81323242 210.30182129 -186 211 C-186.66 211.33 -187.32 211.66 -188 212 C-186.36299224 192.24300985 -181.86999244 172.82788927 -176.375 153.8125 C-176.09825439 152.85206787 -175.82150879 151.89163574 -175.53637695 150.90209961 C-173.99353796 145.74789481 -172.16835542 140.88195953 -169.91064453 135.99926758 C-168.70966318 133.36258224 -167.73274832 130.66205972 -166.75 127.9375 C-148.67625678 80.51465081 -113.16975085 40.28096104 -67 19 C-46.21657208 9.8239205 -23.55797889 6.2136946 -1 5 Z " fill="#F1F1F2" transform="translate(219,154)"/>
<path d="M0 0 C5.51975353 1.83991784 8.42535197 7.59023896 11.6875 12.1875 C16.02755074 18.22871785 20.90051221 23.59746888 26 29 C25.67 29.66 25.34 30.32 25 31 C23.68 29.68 22.36 28.36 21 27 C17.88214887 27.64644661 17.88214887 27.64644661 17 30 C17.66 30 18.32 30 19 30 C19.625 31.8125 19.625 31.8125 20 34 C19.34 34.99 18.68 35.98 18 37 C16.68 36.34 15.36 35.68 14 35 C14.99 35 15.98 35 17 35 C17.33 33.68 17.66 32.36 18 31 C14.88214887 31.64644661 14.88214887 31.64644661 14 34 C11.61521514 34.98680753 10.46102966 35.17531792 8.02709961 34.24975586 C5.70122153 32.81579586 4.78768129 31.57942808 3.37890625 29.25390625 C2.92040283 28.50351074 2.46189941 27.75311523 1.98950195 26.97998047 C1.28313599 25.78332764 1.28313599 25.78332764 0.5625 24.5625 C0.07676514 23.75441895 -0.40896973 22.94633789 -0.90942383 22.11376953 C-4.38777729 16.24642739 -7.47085513 10.34382195 -10 4 C-7.00895561 2.77684112 -4.1308014 1.78270035 -1 1 C-0.67 0.67 -0.34 0.34 0 0 Z " fill="#2F2F2F" transform="translate(52,503)"/>
<path d="M0 0 C0.66 0.33 1.32 0.66 2 1 C2.62319677 9.915176 2.62319677 9.915176 0.3125 13.9375 C-2.00715754 16.00638375 -4.29906488 17.47639558 -7 19 C-8.01230207 19.98754469 -9.01118603 20.98893772 -10 22 C-11.13706982 22.98932989 -12.28321449 23.9683115 -13.4375 24.9375 C-15.43773104 26.62807184 -17.2622397 28.27813302 -19.0625 30.1875 C-21.45619107 32.42675939 -24.06990405 33.56750865 -27 35 C-27.33 35.66 -27.66 36.32 -28 37 C-29.93719378 37.05406122 -31.87481921 37.09282025 -33.8125 37.125 C-34.89144531 37.14820313 -35.97039062 37.17140625 -37.08203125 37.1953125 C-40 37 -40 37 -43 35 C-37.46159254 29.88649681 -31.69400867 25.13046888 -25.74243164 20.51074219 C-19.93278161 15.98616528 -14.25859635 11.3039289 -8.59765625 6.59521484 C-7.911875 6.02625488 -7.22609375 5.45729492 -6.51953125 4.87109375 C-5.91214111 4.36505615 -5.30475098 3.85901855 -4.67895508 3.33764648 C-3.1805699 2.14386251 -1.59403949 1.06269299 0 0 Z " fill="#78787C" transform="translate(294,285)"/>
<path d="M0 0 C4.06528285 1.76398807 7.43625598 4.45865125 10.9375 7.125 C11.61901123 7.64054443 12.30052246 8.15608887 13.00268555 8.68725586 C14.50719939 9.82657205 16.01047238 10.96752815 17.51269531 12.10986328 C20.21060608 14.16004243 22.91381359 16.20312468 25.6171875 18.24609375 C27.51587922 19.68456034 29.41431956 21.1233588 31.3125 22.5625 C32.22572021 23.2529541 33.13894043 23.9434082 34.07983398 24.65478516 C34.93649658 25.30624512 35.79315918 25.95770508 36.67578125 26.62890625 C37.43802002 27.20713135 38.20025879 27.78535645 38.9855957 28.38110352 C40.78801614 29.82963702 42.40572313 31.32849392 44 33 C40.77692845 33.94482476 37.79191247 34.19523408 34.4375 34.25 C33.48746094 34.27578125 32.53742188 34.3015625 31.55859375 34.328125 C28.48668198 33.9341699 27.9755222 33.2943234 26 31 C24.33017047 29.74693325 22.6402984 28.52038433 20.9375 27.3125 C15.4755617 23.37701068 10.19085523 19.28525639 5 15 C3.96875 14.21625 2.9375 13.4325 1.875 12.625 C-0.97528653 8.63459885 -0.41490379 4.74834338 0 0 Z " fill="#848388" transform="translate(148,287)"/>
<path d="M0 0 C1.8125 0.5625 1.8125 0.5625 4 2 C5.78686054 5.50990464 7 8.04124604 7 12 C7.99 12.33 8.98 12.66 10 13 C11.3166727 15.24039631 12.46033255 17.40819044 13.5625 19.75 C14.01786133 20.68199219 14.01786133 20.68199219 14.48242188 21.6328125 C16.13078652 25.03727804 17.64543318 28.46869147 19 32 C18.01 31.01 17.02 30.02 16 29 C15.34 29.33 14.68 29.66 14 30 C10.71173991 30.93950288 7.37131452 31.44732549 4 32 C1.04007491 26.25774532 -1.88535104 20.49960442 -4.4375 14.5625 C-4.76621094 13.80066406 -5.09492187 13.03882813 -5.43359375 12.25390625 C-6.13437652 9.46527412 -5.8239568 7.73909962 -5 5 C-4.34 4.01 -3.68 3.02 -3 2 C-2.34 2 -1.68 2 -1 2 C-0.67 1.34 -0.34 0.68 0 0 Z " fill="#2C2C2C" transform="translate(38,475)"/>
<path d="M0 0 C2.4040528 1.18703854 4.78095918 2.41225354 7.15234375 3.6640625 C53.01947736 27.64328891 108.58757947 34.63940941 159.7109375 35.31640625 C161.0585685 35.33705611 162.40619421 35.35805413 163.7538147 35.37937927 C167.2486941 35.43377317 170.74362354 35.48353591 174.23858643 35.53222656 C177.82576794 35.58305769 181.41287952 35.63841734 185 35.69335938 C191.99993905 35.79992459 198.99994126 35.90158166 206 36 C206 36.33 206 36.66 206 37 C199.95758757 37.14545116 193.91511013 37.28769306 187.87255859 37.42724609 C185.82664056 37.47491486 183.78074106 37.52338779 181.73486328 37.57275391 C171.05836651 37.82982926 160.3829058 38.05024186 149.703125 38.09375 C148.86610046 38.1002356 148.02907593 38.10672119 147.16668701 38.11340332 C143.85205204 38.11600405 141.16704404 38.05568135 138 37 C135.28451528 36.72062613 132.5806763 36.48334335 129.859375 36.28125 C129.0589679 36.21844849 128.25856079 36.15564697 127.43389893 36.09094238 C124.87286217 35.89038715 122.31147919 35.69481673 119.75 35.5 C117.20285028 35.30465904 114.65580455 35.1081826 112.10894775 34.90905762 C110.52526564 34.78539009 108.94140922 34.66392799 107.35736084 34.54504395 C94.55000287 33.55000287 94.55000287 33.55000287 93 32 C91.07971993 31.6307947 89.14872868 31.31695937 87.21484375 31.02734375 C85.46010742 30.76147461 85.46010742 30.76147461 83.66992188 30.49023438 C82.43822266 30.30783203 81.20652344 30.12542969 79.9375 29.9375 C78.70193359 29.75123047 77.46636719 29.56496094 76.19335938 29.37304688 C73.12943921 28.91168438 70.064992 28.4541781 67 28 C67 27.34 67 26.68 67 26 C66.38253906 25.95101563 65.76507813 25.90203125 65.12890625 25.8515625 C57.00986745 25.13481326 49.64117 23.74054534 42.0625 20.73046875 C38.46420676 19.45607323 34.73969055 18.73581874 31 18 C31 17.34 31 16.68 31 16 C30.30132812 15.86722656 29.60265625 15.73445313 28.8828125 15.59765625 C27.97273438 15.42105469 27.06265625 15.24445313 26.125 15.0625 C25.22007813 14.88847656 24.31515625 14.71445312 23.3828125 14.53515625 C21 14 21 14 19 13 C19 12.34 19 11.68 19 11 C17.948125 10.8453125 17.948125 10.8453125 16.875 10.6875 C10.87967041 9.25383423 4.89098116 5.7613383 0 2 C0 1.34 0 0.68 0 0 Z " fill="#F6F6F7" transform="translate(38,417)"/>
<path d="M0 0 C2.97 0.33 5.94 0.66 9 1 C7.57305538 13.59647664 4.18215598 25.75782983 1 38 C0.34 37.67 -0.32 37.34 -1 37 C-1 36.34 -1 35.68 -1 35 C-3.97 36.32 -6.94 37.64 -10 39 C-9.5875 37.845 -9.175 36.69 -8.75 35.5 C-4.90579416 23.94924942 -2.45585609 11.90718105 0 0 Z " fill="#252525" transform="translate(411,434)"/>
<path d="M0 0 C-0.33 0.66 -0.66 1.32 -1 2 C-3.51943158 2.45271036 -5.95862214 2.77930969 -8.5 3.03515625 C-9.25087891 3.11873886 -10.00175781 3.20232147 -10.77539062 3.28843689 C-13.18272933 3.55522587 -15.59116756 3.80958218 -18 4.0625 C-20.40859818 4.32066682 -22.81684186 4.58147028 -25.22460938 4.84727478 C-26.72538514 5.01241849 -28.226692 5.1728143 -29.72851562 5.32814026 C-33.15865794 5.43399676 -33.15865794 5.43399676 -36 7 C-37.47150296 7.22698013 -38.95186468 7.3969553 -40.43359375 7.54296875 C-51.76884815 8.75453198 -62.82844793 10.4072216 -73.9375 13 C-75.54226196 13.37354614 -75.54226196 13.37354614 -77.17944336 13.75463867 C-84.392814 15.49019077 -91.33461971 17.68599574 -98.3125 20.1875 C-101 21 -101 21 -105 21 C-105 21.66 -105 22.32 -105 23 C-109.95 24.485 -109.95 24.485 -115 26 C-115 26.66 -115 27.32 -115 28 C-115.886875 28.391875 -116.77375 28.78375 -117.6875 29.1875 C-121.15286101 31.08364093 -123.33107495 33.11467562 -126 36 C-126.556875 36.515625 -127.11375 37.03125 -127.6875 37.5625 C-129.2141682 39.23456517 -130.07757479 40.94228223 -131 43 C-131.75 41.375 -131.75 41.375 -132 39 C-125.8252404 26.36980992 -109.63879399 20.36335255 -97.0625 16 C-77.44860912 9.53685142 -56.48301065 5.40741643 -36 3 C-34.86804199 2.86609863 -33.73608398 2.73219727 -32.56982422 2.59423828 C-28.79776554 2.15525934 -25.02449802 1.72996945 -21.25 1.3125 C-20.05866455 1.18069336 -18.8673291 1.04888672 -17.63989258 0.91308594 C-11.72365091 0.28939462 -5.94884794 -0.15384952 0 0 Z " fill="#F3F3F3" transform="translate(185,345)"/>
<path d="M0 0 C10.22717429 -0.39610966 20.08404031 0.80796924 30.1875 2.1875 C31.0252597 2.30015198 31.86301941 2.41280396 32.72616577 2.52886963 C58.24048261 5.97593824 83.93163622 10.55581445 108 20 C103.90211861 21.23119457 101.42147688 20.49761014 97.3125 19.25 C96.06339844 18.87617188 94.81429687 18.50234375 93.52734375 18.1171875 C90.78790693 17.24954749 88.08123973 16.33832203 85.375 15.375 C80.96579328 13.85032104 76.50505469 13.17540929 71.89453125 12.52734375 C69 12 69 12 66.40625 11.0390625 C61.26261115 9.4700167 56.01988517 9.03349101 50.6875 8.4375 C48.503468 8.1900356 46.31984353 7.9389378 44.13671875 7.68359375 C43.17467529 7.57587646 42.21263184 7.46815918 41.22143555 7.35717773 C39 7 39 7 38 6 C35.68661164 5.71113366 33.36553098 5.48352247 31.04296875 5.28125 C30.34359695 5.21844849 29.64422516 5.15564697 28.92366028 5.09094238 C26.6786271 4.88970937 24.43313836 4.69435485 22.1875 4.5 C19.95262053 4.30520259 17.71789437 4.10906353 15.48347473 3.90905762 C13.44785962 3.72701252 11.41180414 3.54991195 9.37573242 3.37304688 C6.7969054 3.08806476 4.47731825 2.73192601 2 2 C2.20681396 2.53890869 2.41362793 3.07781738 2.62670898 3.63305664 C3.57114998 6.10674415 4.50437779 8.58452183 5.4375 11.0625 C5.76298828 11.91005859 6.08847656 12.75761719 6.42382812 13.63085938 C8.2312616 18.45689308 9.50538574 22.86576464 10 28 C8.12357202 25.18535803 7.15505516 22.91531643 6.0546875 19.74609375 C5.70019531 18.72708984 5.34570312 17.70808594 4.98046875 16.65820312 C4.61566406 15.59537109 4.25085938 14.53253906 3.875 13.4375 C3.50246094 12.37080078 3.12992187 11.30410156 2.74609375 10.20507812 C0 2.26353594 0 2.26353594 0 0 Z " fill="#F7F7F7" transform="translate(258,345)"/>
<path d="M0 0 C55.78987232 4.78987232 55.78987232 4.78987232 65 14 C60.78971023 13.61724638 57.08219222 13.12168062 53.125 11.625 C47.58595874 9.62859644 41.83099247 8.87777888 36.03173828 8.00244141 C30.09360785 7.09360785 30.09360785 7.09360785 29 6 C27.56273928 5.77357329 26.11611486 5.60577024 24.66796875 5.46484375 C23.78689453 5.37783203 22.90582031 5.29082031 21.99804688 5.20117188 C20.60682617 5.0706543 20.60682617 5.0706543 19.1875 4.9375 C18.27162109 4.84662109 17.35574219 4.75574219 16.41210938 4.66210938 C12.57497502 4.29041318 8.86100649 4 5 4 C5.6762949 9.60573328 6.91250453 14.9254633 8.375 20.375 C8.58382812 21.17421875 8.79265625 21.9734375 9.0078125 22.796875 C10.28664196 27.6158787 11.74046524 32.32593728 13.41772461 37.02172852 C14.2111824 39.71748888 14.21428631 42.214278 14 45 C10.68037174 41.41631041 9.9523473 37.3906754 9 32.75 C7.77678535 26.91381483 6.18306899 21.55528937 4 16 C2.80143584 12.12229244 1.81319927 8.238395 0.94140625 4.27734375 C0.76424072 3.47417725 0.5870752 2.67101074 0.40454102 1.84350586 C0.27104248 1.23514893 0.13754395 0.62679199 0 0 Z " fill="#DFDFE0" transform="translate(221,159)"/>
<path d="M0 0 C4.9240432 4.7652031 9.44259642 9.88657333 14 15 C13.67 15.66 13.34 16.32 13 17 C11.68 15.68 10.36 14.36 9 13 C5.88214887 13.64644661 5.88214887 13.64644661 5 16 C5.66 16 6.32 16 7 16 C7.625 17.8125 7.625 17.8125 8 20 C7.34 20.99 6.68 21.98 6 23 C4.68 22.34 3.36 21.68 2 21 C2.99 21 3.98 21 5 21 C5.33 19.68 5.66 18.36 6 17 C2.88214887 17.64644661 2.88214887 17.64644661 2 20 C-0.39172729 20.98968026 -1.62856665 21.1092451 -4.125 20.375 C-6.7000171 18.48665413 -7.29399719 17.10641238 -8 14 C-7.0625 10.8125 -7.0625 10.8125 -6 8 C-6.33 7.34 -6.66 6.68 -7 6 C-5.02 5.67 -3.04 5.34 -1 5 C-0.67 3.35 -0.34 1.7 0 0 Z " fill="#2B2B2B" transform="translate(64,517)"/>
<path d="M0 0 C3.14212869 1.57106434 4.02621824 4.70377327 5.5 7.75 C5.96212891 8.68199219 5.96212891 8.68199219 6.43359375 9.6328125 C8.10677744 13.03662824 9.6475405 16.4565561 11 20 C10.01 19.01 9.02 18.02 8 17 C7.34 17.33 6.68 17.66 6 18 C2.71261451 18.939253 -0.62665985 19.46333225 -4 20 C-5.32 17.36 -6.64 14.72 -8 12 C-7.01 11.01 -6.02 10.02 -5 9 C-4.27802838 6.39388923 -4.27802838 6.39388923 -4 4 C-3.01 4 -2.02 4 -1 4 C-0.67 2.68 -0.34 1.36 0 0 Z " fill="#3B3B3B" transform="translate(46,487)"/>
<path d="M0 0 C3.54748619 1.585935 6.37846287 3.7425206 9.4375 6.125 C34.25444867 24.98390385 63.32766541 35.5033407 94 40 C88.74761037 43.50159309 81.97148578 41.10925433 76 40 C73.69811199 39.36934575 71.50613067 38.63520424 69.2734375 37.796875 C64.62532844 36.1676409 59.78687703 35.1420468 55 34 C55 33.34 55 32.68 55 32 C54.39671875 31.86722656 53.7934375 31.73445312 53.171875 31.59765625 C52.37265625 31.42105469 51.5734375 31.24445312 50.75 31.0625 C49.96109375 30.88847656 49.1721875 30.71445312 48.359375 30.53515625 C46.23121297 30.052444 44.11467158 29.53836822 42 29 C42 28.34 42 27.68 42 27 C41.45182617 26.84289551 40.90365234 26.68579102 40.33886719 26.52392578 C34.41447134 24.70520946 29.46885175 22.186212 24.25 18.875 C23.09081055 18.15074829 23.09081055 18.15074829 21.90820312 17.41186523 C19.59540193 15.95632131 17.29524089 14.48305552 15 13 C13.98196289 12.34330322 13.98196289 12.34330322 12.94335938 11.67333984 C1.61454197 4.29583489 1.61454197 4.29583489 0 0 Z " fill="#F3F3F4" transform="translate(90,581)"/>
<path d="M0 0 C1.32 0.66 2.64 1.32 4 2 C3.67 3.65 3.34 5.3 3 7 C4.65 7.33 6.3 7.66 8 8 C6.68 13.28 5.36 18.56 4 24 C3.34 23.67 2.68 23.34 2 23 C2 22.34 2 21.68 2 21 C-0.97 22.32 -3.94 23.64 -7 25 C-6.5875 23.845 -6.175 22.69 -5.75 21.5 C-3.38765212 14.45816876 -1.74374602 7.21397466 0 0 Z " fill="#2F2F2F" transform="translate(408,448)"/>
<path d="M0 0 C3.06467594 1.0293156 3.06467594 1.0293156 6 0 C6 0.66 6 1.32 6 2 C6.99 2.33 7.98 2.66 9 3 C8.67 3.66 8.34 4.32 8 5 C8.66 5.33 9.32 5.66 10 6 C8.35 7.98 6.7 9.96 5 12 C-1.26418531 10.51637716 -5.91513505 6.75837844 -11 3 C-10.67 2.01 -10.34 1.02 -10 0 C-9.34 0.33 -8.68 0.66 -8 1 C-7.38125 0.67 -6.7625 0.34 -6.125 0 C-3.51586873 -1.22782648 -2.67058852 -0.91801481 0 0 Z " fill="#373737" transform="translate(46,402)"/>
<path d="M0 0 C1.0209375 0.4021875 1.0209375 0.4021875 2.0625 0.8125 C0.7425 1.1425 -0.5775 1.4725 -1.9375 1.8125 C-1.9375 2.4725 -1.9375 3.1325 -1.9375 3.8125 C-3.32001358 4.79037546 -4.71141171 5.75807388 -6.14453125 6.66015625 C-8.05374675 7.88721197 -9.86346252 9.21263578 -11.6875 10.5625 C-14.9375 12.8125 -14.9375 12.8125 -16.9375 12.8125 C-16.9375 13.4725 -16.9375 14.1325 -16.9375 14.8125 C-21.32211538 17.8125 -21.32211538 17.8125 -23.9375 17.8125 C-23.9375 18.4725 -23.9375 19.1325 -23.9375 19.8125 C-28.32211538 22.8125 -28.32211538 22.8125 -30.9375 22.8125 C-30.9375 23.4725 -30.9375 24.1325 -30.9375 24.8125 C-35.32211538 27.8125 -35.32211538 27.8125 -37.9375 27.8125 C-37.9375 28.4725 -37.9375 29.1325 -37.9375 29.8125 C-40.84298882 31.85419485 -42.33892046 32.8125 -45.9375 32.8125 C-45.9375 32.1525 -45.9375 31.4925 -45.9375 30.8125 C-43.53521865 28.97926097 -41.12126142 27.26007791 -38.625 25.5625 C-37.06773308 24.48491652 -35.51179423 23.40541183 -33.95703125 22.32421875 C-33.13799316 21.75493652 -32.31895508 21.1856543 -31.47509766 20.59912109 C-26.40224863 17.02753083 -21.43153922 13.31663156 -16.44799805 9.62207031 C-14.97065461 8.52745916 -13.4917273 7.43498142 -12.01098633 6.3449707 C-10.64429846 5.33488007 -9.28452574 4.31535547 -7.93237305 3.28588867 C-3.25970503 -0.20806628 -3.25970503 -0.20806628 0 0 Z " fill="#F8F8F8" transform="translate(221.9375,353.1875)"/>
<path d="M0 0 C0 0.66 0 1.32 0 2 C-8.49540541 2.75998114 -16.89815771 3.1396352 -25.42578125 3.09765625 C-27.09618721 3.09553383 -27.09618721 3.09553383 -28.80033875 3.09336853 C-32.30442161 3.08783865 -35.80843695 3.07530001 -39.3125 3.0625 C-41.71028553 3.05747591 -44.10807207 3.05291461 -46.50585938 3.04882812 C-52.33726203 3.03789233 -58.16862619 3.021226 -64 3 C-64 2.34 -64 1.68 -64 1 C-57.93927333 0.85471258 -51.87848496 0.71245538 -45.81762695 0.57275391 C-43.76487406 0.52504153 -41.71213874 0.47656554 -39.65942383 0.42724609 C-26.43670671 0.11018559 -13.22657496 -0.06995617 0 0 Z " fill="#FFFFFF" transform="translate(263,453)"/>
<path d="M0 0 C0.66 0 1.32 0 2 0 C1.67 1.65 1.34 3.3 1 5 C0.67 5 0.34 5 0 5 C0 3.35 0 1.7 0 0 Z M-1 5 C0 8 0 8 -0.9375 10.1875 C-1.288125 10.785625 -1.63875 11.38375 -2 12 C-2 11.01 -2 10.02 -2 9 C-6.31305552 9.30512503 -10.62531495 9.62032833 -14.9375 9.9375 C-16.16919922 10.02451172 -17.40089844 10.11152344 -18.66992188 10.20117188 C-20.4246582 10.33168945 -20.4246582 10.33168945 -22.21484375 10.46484375 C-23.29886475 10.543396 -24.38288574 10.62194824 -25.49975586 10.70288086 C-27.93732551 10.73108434 -27.93732551 10.73108434 -29 12 C-30.95051821 12.2882109 -32.91165371 12.50623182 -34.875 12.6875 C-35.94492188 12.79449219 -37.01484375 12.90148437 -38.1171875 13.01171875 C-41 13 -41 13 -44 11 C-29.6999537 7.98792481 -15.5771232 6.03835886 -1 5 Z " fill="#DADADB" transform="translate(219,154)"/>
<path d="M0 0 C3.3 0.33 6.6 0.66 10 1 C9.67 2.65 9.34 4.3 9 6 C9.66 6.33 10.32 6.66 11 7 C9.68 7 8.36 7 7 7 C6.67 7.66 6.34 8.32 6 9 C5.67 8.67 5.34 8.34 5 8 C4.34 10.31 3.68 12.62 3 15 C-0.83717086 13.72094305 -1.49225549 12.2125934 -3.33984375 8.77734375 C-4 7 -4 7 -3.375 4.75 C-2.694375 3.88375 -2.694375 3.88375 -2 3 C-1.34 2.01 -0.68 1.02 0 0 Z " fill="#1F1F1F" transform="translate(54,516)"/>
<path d="M0 0 C1.713864 3.427728 -0.48081051 7.0208189 -1.625 10.5 C-5.81649755 23.78576965 -8.29924755 37.44789806 -10.51367188 51.18701172 C-10.67931641 52.18619629 -10.84496094 53.18538086 -11.015625 54.21484375 C-11.15774414 55.11195068 -11.29986328 56.00905762 -11.44628906 56.93334961 C-11.62901367 57.61534424 -11.81173828 58.29733887 -12 59 C-12.99 59.495 -12.99 59.495 -14 60 C-13.12348897 49.42141864 -11.33879883 39.13071653 -9.125 28.75 C-8.75834229 27.01218262 -8.75834229 27.01218262 -8.38427734 25.23925781 C-3.67736119 3.67736119 -3.67736119 3.67736119 0 0 Z " fill="#F1F0F1" transform="translate(45,306)"/>
<path d="M0 0 C0.33 0 0.66 0 1 0 C1.34041091 12.35565507 0.96153362 24.45421726 -0.375 36.75 C-0.50108643 37.9143457 -0.62717285 39.07869141 -0.75708008 40.27832031 C-1.5242842 46.93093246 -2.55521348 53.46043994 -4 60 C-6.20094987 56.69857519 -6.22299894 56.28078753 -5.8125 52.5625 C-5.70421875 51.57507813 -5.5959375 50.58765625 -5.484375 49.5703125 C-5.12922628 46.95252277 -4.74600559 44.34990092 -4.328125 41.7421875 C-2.11127078 27.86808617 -0.92116632 14.01760449 0 0 Z " fill="#7F7F82" transform="translate(424,392)"/>
<path d="M0 0 C0.33 0 0.66 0 1 0 C1.62319677 8.915176 1.62319677 8.915176 -0.6875 12.9375 C-3.00715754 15.00638375 -5.29906488 16.47639558 -8 18 C-9.01230207 18.98754469 -10.01118603 19.98893772 -11 21 C-12.13706982 21.98932989 -13.28321449 22.9683115 -14.4375 23.9375 C-16.43773104 25.62807184 -18.2622397 27.27813302 -20.0625 29.1875 C-22.45619107 31.42675939 -25.06990405 32.56750865 -28 34 C-28.33 34.66 -28.66 35.32 -29 36 C-29.99 36 -30.98 36 -32 36 C-30.68262177 32.0478653 -28.14510997 30.54013143 -24.9375 28.125 C-23.67159712 27.14098237 -22.40598424 26.1565916 -21.140625 25.171875 C-18.30000154 22.98194296 -15.42974825 20.83700415 -12.546875 18.703125 C-11.09324299 17.59441443 -9.64010714 16.485053 -8.1875 15.375 C-7.48810303 14.87371582 -6.78870605 14.37243164 -6.06811523 13.85595703 C-3.21385298 11.64540388 -1.31930824 10.15213348 -0.33447266 6.59863281 C-0.08182259 4.37479038 0.04349783 2.2362264 0 0 Z " fill="#F8F8F8" transform="translate(295,286)"/>
<path d="M0 0 C0.66 0.33 1.32 0.66 2 1 C1.83395264 1.71317383 1.66790527 2.42634766 1.49682617 3.16113281 C-1.48422419 16.04489541 -4.41944336 28.85971464 -6.06176758 41.99316406 C-6.53953307 45.66635369 -6.91005625 47.86508437 -9 51 C-8.82779644 40.77737059 -7.43831904 30.98135674 -5.5625 20.9375 C-5.34505127 19.7724292 -5.12760254 18.6073584 -4.90356445 17.40698242 C-1.92810432 1.92810432 -1.92810432 1.92810432 0 0 Z " fill="#7A797E" transform="translate(39,316)"/>
<path d="M0 0 C0.99 0 1.98 0 3 0 C5.63719658 11.39863659 8.13944934 22.7899928 9.8125 34.375 C9.9360083 35.2105542 10.0595166 36.0461084 10.18676758 36.90698242 C10.92778201 42.31589847 11.10392695 47.54110047 11 53 C10.67 53 10.34 53 10 53 C9.77957031 51.07027344 9.77957031 51.07027344 9.5546875 49.1015625 C7.84192163 35.01808781 5.00396046 21.37664124 1.61669922 7.60522461 C1.01877451 5.07931227 0.49313278 2.5482363 0 0 Z " fill="#818185" transform="translate(402,309)"/>
<path d="M0 0 C32.67 0.495 32.67 0.495 66 1 C66 1.33 66 1.66 66 2 C59.95758757 2.14545116 53.91511013 2.28769306 47.87255859 2.42724609 C45.82664056 2.47491486 43.78074106 2.52338779 41.73486328 2.57275391 C28.15358471 2.89977241 14.5852308 3.0674577 1 3 C0.67 2.01 0.34 1.02 0 0 Z " fill="#E2E2E3" transform="translate(178,452)"/>
<path d="M0 0 C13.02533492 -0.67372422 25.9692665 3.22864889 38 8 C38.66 8.66 39.32 9.32 40 10 C35.78971023 9.61724638 32.08219222 9.12168062 28.125 7.625 C22.69310427 5.67142346 17.07282123 4.92492024 11.38330078 4.09033203 C7.32628129 3.47616009 3.75677373 2.75065656 0 1 C0 0.67 0 0.34 0 0 Z " fill="#ECECEC" transform="translate(246,163)"/>
<path d="M0 0 C0.33 3.3 0.66 6.6 1 10 C0.01 10 -0.98 10 -2 10 C-2 10.66 -2 11.32 -2 12 C-2.99 12.33 -3.98 12.66 -5 13 C-6.32229189 10.35541621 -6.09677194 8.32238699 -6.0625 5.375 C-6.05347656 4.37210937 -6.04445313 3.36921875 -6.03515625 2.3359375 C-6.02355469 1.56507813 -6.01195313 0.79421875 -6 0 C-4 -1 -4 -1 0 0 Z " fill="#303030" transform="translate(23,412)"/>
<path d="M0 0 C-0.33 0.66 -0.66 1.32 -1 2 C-3.48095703 2.50244141 -3.48095703 2.50244141 -6.7578125 2.8515625 C-7.94117188 2.98046875 -9.12453125 3.109375 -10.34375 3.2421875 C-12.21546875 3.43167969 -12.21546875 3.43167969 -14.125 3.625 C-15.96191406 3.82609375 -15.96191406 3.82609375 -17.8359375 4.03125 C-23.58007782 4.640477 -29.2225984 5.18857987 -35 5 C-31.85979372 2.90652915 -30.39670459 2.59738158 -26.73828125 2.1484375 C-25.70123047 2.01953125 -24.66417969 1.890625 -23.59570312 1.7578125 C-21.97051758 1.56832031 -21.97051758 1.56832031 -20.3125 1.375 C-18.71631836 1.17390625 -18.71631836 1.17390625 -17.08789062 0.96875 C-11.34716552 0.27376413 -5.78150373 -0.15380058 0 0 Z " fill="#FAFAFA" transform="translate(185,345)"/>
<path d="M0 0 C2.5178998 1.2589499 2.92708464 2.39057117 4.1875 4.875 C4.55230469 5.57367188 4.91710938 6.27234375 5.29296875 6.9921875 C6 9 6 9 5 12 C4.67 10.68 4.34 9.36 4 8 C3.01 8.66 2.02 9.32 1 10 C1 10.33 1 10.66 1 11 C-1.31 11 -3.62 11 -6 11 C-5.34 8.69 -4.68 6.38 -4 4 C-3.01 4 -2.02 4 -1 4 C-0.67 2.68 -0.34 1.36 0 0 Z " fill="#676767" transform="translate(46,487)"/>
<path d="M0 0 C1.49609375 1.16796875 1.49609375 1.16796875 3 3 C3.22265625 5.42578125 3.22265625 5.42578125 3.0625 8.3125 C2.89638046 14.27835821 3.62752552 19.8241232 4.5546875 25.70703125 C5.11709645 29.86589744 5.14443469 33.81139412 5 38 C3.05676294 34.67124193 2.56075075 31.76297214 2.1484375 27.94921875 C2.01953125 26.77552734 1.890625 25.60183594 1.7578125 24.39257812 C1.63148437 23.16990234 1.50515625 21.94722656 1.375 20.6875 C1.2409375 19.47642578 1.106875 18.26535156 0.96875 17.01757812 C0.35754145 11.3202413 -0.18623582 5.73098396 0 0 Z " fill="#F5F5F5" transform="translate(28,408)"/>
<path d="M0 0 C1.33841672 0.31229724 2.67139075 0.64830932 4 1 C4.99 1 5.98 1 7 1 C7.66 1.66 8.32 2.32 9 3 C7.4274835 3.89429374 5.84146259 4.76487427 4.25 5.625 C3.36828125 6.11226563 2.4865625 6.59953125 1.578125 7.1015625 C-1 8 -1 8 -3.328125 7.1484375 C-3.87984375 6.76945312 -4.4315625 6.39046875 -5 6 C-4.01 5.67 -3.02 5.34 -2 5 C-1.33820153 3.01954441 -1.33820153 3.01954441 -1 1 C-0.67 0.67 -0.34 0.34 0 0 Z " fill="#585858" transform="translate(291,430)"/>
<path d="M0 0 C0.33 0 0.66 0 1 0 C1.70568708 3.03773774 2.38621327 6.08059372 3.0625 9.125 C3.26166016 9.9809375 3.46082031 10.836875 3.66601562 11.71875 C4.70834668 16.47324253 5.25609146 20.18103278 4 25 C-0.23575876 17.02680704 -0.27003664 8.86620317 0 0 Z " fill="#88888B" transform="translate(20,439)"/>
<path d="M0 0 C6.6 0 13.2 0 20 0 C19.67 0.66 19.34 1.32 19 2 C20.32 2.66 21.64 3.32 23 4 C19.21812119 5.83691257 17.05431692 6.15837626 13 5 C13 3.68 13 2.36 13 1 C8.71 1 4.42 1 0 1 C0 0.67 0 0.34 0 0 Z " fill="#6A6B6B" transform="translate(242,426)"/>
<path d="M0 0 C0.33 0 0.66 0 1 0 C1.62319677 8.915176 1.62319677 8.915176 -0.6875 12.9375 C-3.00715754 15.00638375 -5.29906488 16.47639558 -8 18 C-8.556875 18.556875 -9.11375 19.11375 -9.6875 19.6875 C-10.120625 20.120625 -10.55375 20.55375 -11 21 C-11.66 21 -12.32 21 -13 21 C-11.50250107 17.12361706 -9.31214422 15.62862273 -5.9375 13.3125 C-2.20271724 10.5116748 -2.20271724 10.5116748 -0.12109375 6.48046875 C0.09806376 4.27150017 0.17401232 2.21098002 0 0 Z " fill="#F9F9F9" transform="translate(295,286)"/>
<path d="M0 0 C-0.99 0.33 -1.98 0.66 -3 1 C-3.33 1.99 -3.66 2.98 -4 4 C-5.93596892 4.22211116 -7.87389328 4.42722992 -9.8125 4.625 C-11.43091797 4.79902344 -11.43091797 4.79902344 -13.08203125 4.9765625 C-16 5 -16 5 -19 3 C-16.77228658 2.49356447 -14.54275924 1.9951038 -12.3125 1.5 C-10.45044922 1.08234375 -10.45044922 1.08234375 -8.55078125 0.65625 C-5.57601782 0.10645874 -3.00631398 -0.13795705 0 0 Z " fill="#E7E7E8" transform="translate(194,162)"/>
<path d="M0 0 C0 0.66 0 1.32 0 2 C0.66 2.33 1.32 2.66 2 3 C0.41913952 3.36504603 -1.16483907 3.71660506 -2.75 4.0625 C-3.63171875 4.25972656 -4.5134375 4.45695312 -5.421875 4.66015625 C-7.98679028 4.99825872 -9.57091639 4.81158635 -12 4 C-8.59914501 0.59914501 -4.67235329 -1.5574511 0 0 Z " fill="#4A4A4A" transform="translate(299,435)"/>
<path d="M0 0 C0.33 0.66 0.66 1.32 1 2 C1.66 2 2.32 2 3 2 C3.69951063 4.413762 4.38483919 6.83010234 5.0625 9.25 C5.26166016 9.93191406 5.46082031 10.61382812 5.66601562 11.31640625 C7.40009269 17.58342161 7.40009269 17.58342161 6 21 C4.08287847 17.61391522 3.26742217 14.28896405 2.4375 10.5 C2.18871094 9.3759375 1.93992188 8.251875 1.68359375 7.09375 C1.45800781 6.0728125 1.23242188 5.051875 1 4 C0.67278866 2.66515108 0.34253644 1.33099875 0 0 Z " fill="#E5E6E7" transform="translate(223,165)"/>
<path d="M0 0 C0.66 0 1.32 0 2 0 C1.33795365 3.21460285 0.19453363 5.81002167 -1.375 8.6875 C-1.79523438 9.47511719 -2.21546875 10.26273437 -2.6484375 11.07421875 C-4 13 -4 13 -7 14 C-5.58163643 8.8423143 -3.32608425 4.20024742 0 0 Z " fill="#F0F0F0" transform="translate(70,247)"/>
<path d="M0 0 C6.06892629 -0.25287193 11.16200408 0.30167391 17 2 C17 2.66 17 3.32 17 4 C15.10353002 3.88506243 13.20781668 3.75760358 11.3125 3.625 C10.25675781 3.55539063 9.20101562 3.48578125 8.11328125 3.4140625 C5.09322731 3.01239911 2.75921946 2.25930981 0 1 C0 0.67 0 0.34 0 0 Z " fill="#F9F9F9" transform="translate(246,163)"/>
<path d="M0 0 C1.84036681 2.76055022 2.68344114 4.74598117 3.625 7.875 C3.88539063 8.71804687 4.14578125 9.56109375 4.4140625 10.4296875 C5.00963022 13.04224458 5.10525251 15.33041371 5 18 C4.34 17.67 3.68 17.34 3 17 C2.1484375 14.19921875 2.1484375 14.19921875 1.375 10.6875 C1.11460937 9.53636719 0.85421875 8.38523438 0.5859375 7.19921875 C0 4 0 4 0 0 Z " fill="#E2E3E4" transform="translate(237,211)"/>
<path d="M0 0 C0 0.99 0 1.98 0 3 C-1.32 3.33 -2.64 3.66 -4 4 C-4.33 6.31 -4.66 8.62 -5 11 C-5.33 11 -5.66 11 -6 11 C-6 7.37 -6 3.74 -6 0 C-3.50907189 -1.24546405 -2.58919267 -0.7767578 0 0 Z " fill="#404040" transform="translate(23,412)"/>
<path d="M0 0 C4.62 0.99 9.24 1.98 14 3 C9.91834615 5.04082692 9.41183368 5.2678819 5.3125 4.3125 C4.52488281 4.14363281 3.73726563 3.97476562 2.92578125 3.80078125 C2.29027344 3.53652344 1.65476562 3.27226562 1 3 C0.67 2.01 0.34 1.02 0 0 Z " fill="#E9E9EA" transform="translate(89,438)"/>
<path d="M0 0 C-3.2645028 3.2645028 -7.41047299 3.93236055 -11.9375 4.125 C-12.618125 4.08375 -13.29875 4.0425 -14 4 C-9.97634192 -0.62720679 -5.89090326 -0.1132866 0 0 Z " fill="#FAFAFA" transform="translate(127,353)"/>
<path d="M0 0 C0.66 0 1.32 0 2 0 C1.67 4.29 1.34 8.58 1 13 C-1 11 -1 11 -1.1875 7.625 C-1.04410663 4.85272822 -0.83710258 2.61594556 0 0 Z " fill="#8B8A8E" transform="translate(421,429)"/>
<path d="M0 0 C0.66 0.66 1.32 1.32 2 2 C3.32392972 3.01241685 4.65599167 4.01439389 6 5 C3.03 5.66 0.06 6.32 -3 7 C-3 5 -3 5 -1 3 C-1.66 2.34 -2.32 1.68 -3 1 C-2.01 0.67 -1.02 0.34 0 0 Z " fill="#4A4A4A" transform="translate(336,426)"/>
<path d="M0 0 C0.33 1.32 0.66 2.64 1 4 C0.01 4 -0.98 4 -2 4 C-2.33 5.32 -2.66 6.64 -3 8 C-4.32 8.33 -5.64 8.66 -7 9 C-5.44499019 5.18315774 -2.96404505 2.80804268 0 0 Z " fill="#EDEDEE" transform="translate(413,408)"/>
<path d="M0 0 C-1 2 -1 2 -3.8125 3.125 C-7 4 -7 4 -11 4 C-11 3.34 -11 2.68 -11 2 C-9.73392393 1.46770674 -8.46189588 0.94955456 -7.1875 0.4375 C-6.47980469 0.14746094 -5.77210937 -0.14257812 -5.04296875 -0.44140625 C-3 -1 -3 -1 0 0 Z " fill="#EEEEEF" transform="translate(91,362)"/>
<path d="M0 0 C0.66 0 1.32 0 2 0 C1.57630928 1.6286551 1.1355377 3.25287378 0.6875 4.875 C0.44386719 5.77992188 0.20023438 6.68484375 -0.05078125 7.6171875 C-1 10 -1 10 -4 12 C-3.52494322 10.18641846 -3.04483958 8.37415821 -2.5625 6.5625 C-2.29566406 5.55316406 -2.02882812 4.54382813 -1.75390625 3.50390625 C-1 1 -1 1 0 0 Z " fill="#E1E1E2" transform="translate(47,296)"/>
<path d="M0 0 C2.66666667 2.66666667 5.33333333 5.33333333 8 8 C7.67 8.66 7.34 9.32 7 10 C6.608125 9.54625 6.21625 9.0925 5.8125 8.625 C3.69167513 6.72357081 1.66957765 5.93795972 -1 5 C-0.67 3.35 -0.34 1.7 0 0 Z " fill="#929292" transform="translate(64,517)"/>
<path d="M0 0 C2 0 2 0 4.375 2.25 C5.24125 3.1575 6.1075 4.065 7 5 C8.1446875 6.1446875 8.1446875 6.1446875 9.3125 7.3125 C9.869375 7.869375 10.42625 8.42625 11 9 C10.67 9.66 10.34 10.32 10 11 C8.70145279 9.92492371 7.41141639 8.83956264 6.125 7.75 C5.40570313 7.14671875 4.68640625 6.5434375 3.9453125 5.921875 C2.02947882 4.02912366 1.03550955 2.46342273 0 0 Z " fill="#E2E2E3" transform="translate(339,205)"/>
<path d="M0 0 C0.66 0.33 1.32 0.66 2 1 C-0.04004397 4.06006595 -0.69269325 4.77157178 -4 6 C-6.75 6.125 -6.75 6.125 -9 6 C-3.30379747 1.25316456 -3.30379747 1.25316456 0 0 Z " fill="#EAEAEB" transform="translate(140,179)"/>
<path d="M0 0 C-2 3 -2 3 -3.9453125 3.51171875 C-4.66460937 3.56972656 -5.38390625 3.62773437 -6.125 3.6875 C-8.043125 3.8421875 -8.043125 3.8421875 -10 4 C-7.16124653 -0.25813021 -4.8137938 -0.13010254 0 0 Z " fill="#F9F9F9" transform="translate(100,359)"/>
<path d="M0 0 C0 0.66 0 1.32 0 2 C-6.625 5 -6.625 5 -10 5 C-5.16129032 0 -5.16129032 0 0 0 Z " fill="#F8F8F8" transform="translate(150,176)"/>
<path d="M0 0 C0.99 0 1.98 0 3 0 C3.33 2.97 3.66 5.94 4 9 C3.34 9 2.68 9 2 9 C1.34 6.03 0.68 3.06 0 0 Z " fill="#7E7E82" transform="translate(402,309)"/>
<path d="M0 0 C1.32 1.32 2.64 2.64 4 4 C-1.75 5.125 -1.75 5.125 -4 4 C-4 3.34 -4 2.68 -4 2 C-2.68 1.34 -1.36 0.68 0 0 Z " fill="#353535" transform="translate(378,398)"/>
<path d="M0 0 C-0.33 0.99 -0.66 1.98 -1 3 C-3.875 3.125 -3.875 3.125 -7 3 C-7.66 2.34 -8.32 1.68 -9 1 C-5.92677456 0.08941469 -3.19902639 -0.08886184 0 0 Z " fill="#ECECED" transform="translate(267,619)"/>
<path d="M0 0 C0.66 0.33 1.32 0.66 2 1 C-1.61328125 5.6875 -1.61328125 5.6875 -3 7 C-3.99 7 -4.98 7 -6 7 C-4.77065985 3.31197956 -3.06140622 2.27643027 0 0 Z " fill="#E8E8E9" transform="translate(269,315)"/>
<path d="M0 0 C2.475 0.99 2.475 0.99 5 2 C4.34 3.32 3.68 4.64 3 6 C2.01 5.67 1.02 5.34 0 5 C0 3.35 0 1.7 0 0 Z " fill="#5D5D5D" transform="translate(173,428)"/>
<path d="M0 0 C-0.33 0.99 -0.66 1.98 -1 3 C-3.64 2.67 -6.28 2.34 -9 2 C-5.86501708 0.14223235 -3.62528568 -0.20140476 0 0 Z " fill="#E0E0E1" transform="translate(184,164)"/>
<path d="M0 0 C0.33 0.66 0.66 1.32 1 2 C0.06421005 4.35981813 -0.93347808 6.69631264 -2 9 C-2.6875 7.3125 -2.6875 7.3125 -3 5 C-1.5625 2.25 -1.5625 2.25 0 0 Z " fill="#FBFAFB" transform="translate(45,306)"/>
</svg>
